<?xml version="1.0" encoding="UTF-8"?>
<svg version="1.1" xmlns="http://www.w3.org/2000/svg" width="374" height="374">
<path d="M0 0 C4.3467061 2.60173548 8.50169833 3.15837591 13.4375 3.8125 C30.18873844 6.05783955 46.64201918 11.1160145 61.875 18.4375 C61.875 19.0975 61.875 19.7575 61.875 20.4375 C62.57109375 20.53546875 63.2671875 20.6334375 63.984375 20.734375 C82.03604241 25.12532113 101.88257365 43.95514323 113.40234375 57.7109375 C114.85230259 59.47282797 114.85230259 59.47282797 116.56640625 61.0390625 C117.875 62.4375 117.875 62.4375 117.875 64.4375 C118.535 64.4375 119.195 64.4375 119.875 64.4375 C121.49386057 66.42358792 122.97494066 68.40219601 124.4375 70.5 C125.1013269 71.4446814 125.1013269 71.4446814 125.77856445 72.40844727 C151.67860765 109.73755961 163.82407258 155.18198452 155.875 200.4375 C155.74609375 201.17774414 155.6171875 201.91798828 155.484375 202.68066406 C153.3916591 214.37952727 150.19893564 225.37633571 145.875 236.4375 C145.43929688 237.56285156 145.00359375 238.68820313 144.5546875 239.84765625 C136.19555309 260.64034593 122.65689975 278.834889 107 294.6875 C106.27425781 295.42718018 105.54851562 296.16686035 104.80078125 296.92895508 C104.10597656 297.61755615 103.41117187 298.30615723 102.6953125 299.015625 C102.07930176 299.62825195 101.46329102 300.24087891 100.82861328 300.87207031 C98.875 302.4375 98.875 302.4375 96.19873047 303.46386719 C95.43189941 303.78516602 94.66506836 304.10646484 93.875 304.4375 C93.545 305.4275 93.215 306.4175 92.875 307.4375 C88.76913768 310.7461075 84.2928369 313.56349378 79.875 316.4375 C79.29911133 316.81745117 78.72322266 317.19740234 78.12988281 317.58886719 C53.33093484 333.80627824 23.55135976 343.04164958 -6.08203125 343.625 C-7.2618457 343.64973389 -8.44166016 343.67446777 -9.65722656 343.69995117 C-11.97014684 343.73274154 -14.28370041 343.73657618 -16.59667969 343.70825195 C-19.55269201 343.73609189 -22.23734919 343.80220518 -25.125 344.4375 C-27.85516914 347.17738961 -27.85516914 347.17738961 -29.125 350.4375 C-29.785 351.0975 -30.445 351.7575 -31.125 352.4375 C-33.87109375 352.3359375 -33.87109375 352.3359375 -37.5625 351.8125 C-38.57509888 351.6724353 -38.57509888 351.6724353 -39.6081543 351.52954102 C-42.11565349 351.17779801 -44.62005623 350.8070032 -47.125 350.4375 C-49.44526202 350.10511621 -51.7655782 349.7731103 -54.0859375 349.44140625 C-56.53661243 349.08700145 -58.98713324 348.73152926 -61.4375 348.375 C-62.63624756 348.20081543 -63.83499512 348.02663086 -65.07006836 347.84716797 C-66.19807861 347.67975098 -67.32608887 347.51233398 -68.48828125 347.33984375 C-69.50188721 347.19023193 -70.51549316 347.04062012 -71.55981445 346.88647461 C-74.125 346.4375 -74.125 346.4375 -77.125 345.4375 C-77.58401562 343.11576937 -77.96642524 340.7787306 -78.3125 338.4375 C-79.29659351 333.68563787 -80.47844855 330.48431343 -84.5546875 327.65234375 C-87.97516352 325.64169221 -91.53551664 323.93935536 -95.15527344 322.31933594 C-110.30345376 315.53757747 -122.25713367 304.77033957 -134.125 293.4375 C-134.77984375 292.83550781 -135.4346875 292.23351562 -136.109375 291.61328125 C-142.17318634 285.88153577 -147.1007573 279.07004227 -152.125 272.4375 C-152.79015625 271.56738281 -153.4553125 270.69726562 -154.140625 269.80078125 C-158.32427272 264.1000901 -161.51916159 258.02692463 -164.5703125 251.671875 C-165.72718892 249.26510697 -166.92811926 246.91473179 -168.1875 244.5625 C-180.08792784 220.65949473 -183.84297909 194.82796496 -184.125 168.4375 C-184.14119385 167.36798096 -184.14119385 167.36798096 -184.15771484 166.27685547 C-184.32568228 135.05890787 -172.34016139 100.4046191 -153.59765625 75.4453125 C-152.03724797 73.38600005 -152.03724797 73.38600005 -150.57421875 70.82421875 C-148.7881892 67.8828062 -146.58749016 65.84402448 -144.125 63.4375 C-143.11727031 62.27750346 -142.11809973 61.11004597 -141.125 59.9375 C-133.67516913 51.36285878 -125.63678702 42.71886878 -116.125 36.4375 C-115.465 36.4375 -114.805 36.4375 -114.125 36.4375 C-114.125 35.7775 -114.125 35.1175 -114.125 34.4375 C-111.24245909 32.16452413 -108.0503022 30.31624426 -104.9375 28.375 C-104.07318359 27.82005859 -103.20886719 27.26511719 -102.31835938 26.69335938 C-101.05668945 25.89961914 -101.05668945 25.89961914 -99.76953125 25.08984375 C-98.99971924 24.60507568 -98.22990723 24.12030762 -97.43676758 23.62084961 C-94.98783299 22.36728683 -92.83418318 21.84727481 -90.125 21.4375 C-90.125 20.7775 -90.125 20.1175 -90.125 19.4375 C-89.44920898 19.17533691 -88.77341797 18.91317383 -88.07714844 18.64306641 C-85.00898905 17.45153285 -81.94198651 16.25704911 -78.875 15.0625 C-77.81152344 14.65 -76.74804688 14.2375 -75.65234375 13.8125 C-74.62753906 13.41289062 -73.60273437 13.01328125 -72.546875 12.6015625 C-71.60424805 12.23498535 -70.66162109 11.8684082 -69.69042969 11.49072266 C-65.57699096 9.80197364 -62.41905752 7.97000912 -59 5.125 C-42.40829394 -7.91521342 -18.39212219 -11.92416566 0 0 Z " fill="#FDD6CA" transform="translate(200.125,14.5625)"/>
<path d="M0 0 C12.17651286 9.31587924 20.8349085 22.66627835 23 38 C23.23113039 43.02432585 23.18943262 48.03427714 23.125 53.0625 C23.11494631 54.41861315 23.1058247 55.77473355 23.09765625 57.13085938 C23.07424058 60.420761 23.04144423 63.71028438 23 67 C23.91313965 67.28302979 24.8262793 67.56605957 25.76708984 67.85766602 C28.4525852 68.80657349 30.40434588 69.69526412 32.7265625 71.27734375 C33.3659375 71.70853516 34.0053125 72.13972656 34.6640625 72.58398438 C35.31117188 73.03064453 35.95828125 73.47730469 36.625 73.9375 C37.27984375 74.38029297 37.9346875 74.82308594 38.609375 75.27929688 C41.21482365 77.0487868 43.7792058 78.8296622 46.2734375 80.75390625 C48.09070114 82.19621729 48.09070114 82.19621729 51 83 C50.96519531 82.43152344 50.93039063 81.86304687 50.89453125 81.27734375 C50.70215953 75.79016957 51.15746941 71.85981036 54 67 C57.70829888 63.11255625 61.84975009 59.40631364 67.33203125 58.69921875 C75.46773857 58.66078234 80.86939117 60.37404494 87 66 C88.64090594 68.34507283 89.92822622 70.80806594 91.1875 73.375 C91.70957031 74.43630127 91.70957031 74.43630127 92.2421875 75.51904297 C95.37036396 82.22035203 96.61554426 88.6117637 97 96 C97.11988281 97.83304688 97.11988281 97.83304688 97.2421875 99.703125 C97.49277688 106.63118424 97.41289342 112.40440027 93 118 C91.76580452 119.16283943 90.51512194 120.30838508 89.25 121.4375 C86.353531 124.21018827 86.03662859 124.71154987 85.5 128.9375 C85.62783324 130.62838518 85.80187107 132.31590411 86 134 C87.73695457 151.12637209 87.73695457 151.12637209 84.37109375 156.390625 C80.68255889 160.72018729 76.61537642 164.52226936 71 166 C69.33351459 166.02457943 67.66643677 166.02768167 66 166 C66.11859375 167.0621875 66.2371875 168.124375 66.359375 169.21875 C67.7201217 183.16764069 67.7201217 183.16764069 64.4453125 188.3203125 C60.32203696 193.11222732 56.12961443 197.52610982 49.6171875 198.2734375 C42.61107189 198.53292326 37.52036963 197.47879045 32 193 C27.69662966 188.19925519 23.96340536 182.96975768 20.1875 177.75 C19.59001953 176.9353125 18.99253906 176.120625 18.37695312 175.28125 C17.81298828 174.50265625 17.24902344 173.7240625 16.66796875 172.921875 C16.15516357 172.21643555 15.6423584 171.51099609 15.11401367 170.78417969 C14 169 14 169 14 167 C13.01 167.33 12.02 167.66 11 168 C12.59810752 172.22933504 14.57735316 176.22599769 16.625 180.25 C17.33699801 181.67134425 18.04789848 183.09323872 18.7578125 184.515625 C19.88408824 186.77213875 21.01353379 189.02665573 22.15527344 191.27539062 C23.28578541 193.50952048 24.39464895 195.75333527 25.5 198 C25.8501416 198.68094727 26.2002832 199.36189453 26.56103516 200.06347656 C29.39099367 205.894302 30.21892727 211.68575545 28.0625 218 C25.91028732 223.22532406 21.55990464 226.83098482 17 230 C11.43442502 231.93772437 5.21412863 231.8534927 -0.1875 229.5 C-8.7431518 224.44775948 -12.69112586 214.26426003 -17 205.75 C-17.59039062 204.59886719 -18.18078125 203.44773438 -18.7890625 202.26171875 C-20.53704048 198.8466164 -22.26929109 195.42387961 -24 192 C-24.58523437 190.85724609 -25.17046875 189.71449219 -25.7734375 188.53710938 C-26.32257813 187.45751953 -26.87171875 186.37792969 -27.4375 185.265625 C-27.93121094 184.29915039 -28.42492187 183.33267578 -28.93359375 182.33691406 C-30 180 -30 180 -30 178 C-31.03060547 177.67708984 -31.03060547 177.67708984 -32.08203125 177.34765625 C-35.8618923 175.60193729 -38.59033083 173.18415861 -41.6875 170.4375 C-42.60897827 169.63493774 -42.60897827 169.63493774 -43.54907227 168.81616211 C-47.21915293 165.60920725 -50.83467353 162.34482963 -54.4375 159.0625 C-58.11868373 155.71596933 -61.87586857 152.77930596 -66 150 C-66.23332031 150.52207031 -66.46664062 151.04414063 -66.70703125 151.58203125 C-68.43329974 154.81030979 -70.54692311 157.72678024 -72.6875 160.6875 C-73.13593262 161.30890869 -73.58436523 161.93031738 -74.04638672 162.57055664 C-75.35982395 164.38364552 -76.67933391 166.19217326 -78 168 C-78.63808594 168.88171875 -79.27617188 169.7634375 -79.93359375 170.671875 C-86.74295332 179.79295711 -94.77032482 186.72370686 -105.9375 189.8125 C-106.948125 189.874375 -107.95875 189.93625 -109 190 C-109.85722656 190.061875 -110.71445313 190.12375 -111.59765625 190.1875 C-117.63354462 190.44745751 -121.33323291 190.22231308 -126 186 C-131.16045596 180.60890913 -133.61502918 176.22689454 -133.45458984 168.74658203 C-132.60302826 163.60154023 -129.70339521 159.68184561 -126.8125 155.4375 C-125.65046547 153.66659565 -124.49028862 151.89447085 -123.33203125 150.12109375 C-122.76564941 149.26628418 -122.19926758 148.41147461 -121.61572266 147.53076172 C-120.07635128 145.11959163 -118.68353313 142.67626747 -117.32421875 140.16015625 C-115.49914458 136.79523362 -113.46217575 133.94390579 -111 131 C-110.22505542 129.89760929 -109.46275584 128.78625921 -108.7109375 127.66796875 C-108.32679687 127.09755859 -107.94265625 126.52714844 -107.546875 125.93945312 C-106.75418035 124.75437462 -105.96521418 123.56679501 -105.1796875 122.37695312 C-104.16915907 120.88335114 -103.08972669 119.4368404 -102 118 C-101.34 118 -100.68 118 -100 118 C-99.7525 117.46375 -99.505 116.9275 -99.25 116.375 C-98 114 -98 114 -96.125 111.4375 C-94.24991011 108.70698589 -93.27249838 106.01940873 -92.25 102.875 C-90.34014975 97.16864581 -87.27897085 92.9657665 -83.51171875 88.3125 C-81.63453146 84.19918005 -82.05316969 81.85232929 -82.62573242 77.45263672 C-83.35581692 70.71757152 -83.26389147 63.93545371 -83.29516602 57.16674805 C-83.30671064 55.43229023 -83.32720158 53.69786861 -83.35668945 51.96362305 C-83.58021796 38.75296356 -82.34999522 27.89518214 -75.4375 16.3125 C-74.85871094 15.31863281 -74.27992188 14.32476563 -73.68359375 13.30078125 C-72 11 -72 11 -69 10 C-68.78150391 9.08541016 -68.78150391 9.08541016 -68.55859375 8.15234375 C-67.25296994 3.12158347 -60.79058015 0.07204879 -56.56640625 -2.45703125 C-38.45018809 -12.05138039 -17.11595691 -11.97198417 0 0 Z " fill="#F25D2A" transform="translate(205,17)"/>
<path d="M0 0 C10.84246646 8.29524095 19.75787516 20.25139026 22 34 C22.0805562 36.42205646 22.10762899 38.84615605 22.09765625 41.26953125 C22.0962413 41.95053391 22.09482635 42.63153656 22.09336853 43.33317566 C22.08780298 45.49299647 22.07525703 47.65271089 22.0625 49.8125 C22.05748054 51.28320162 22.05291841 52.75390488 22.04882812 54.22460938 C22.03784488 57.8164404 22.02060422 61.4082098 22 65 C19.77083333 63.9375 17.54166667 62.875 15.3125 61.8125 C14.62712158 61.4925708 13.94174316 61.1726416 13.2355957 60.84301758 C9.05990221 58.80206494 6.1585223 56.48358462 3 53 C-5.27057815 44.12425759 -13.65223324 38.27605719 -26.1484375 37.69921875 C-27.55716349 37.67981753 -28.96618556 37.67622175 -30.375 37.6875 C-31.11814453 37.69313965 -31.86128906 37.6987793 -32.62695312 37.70458984 C-43.40304191 37.94181412 -52.26496671 41.1841916 -59.94140625 48.96875 C-65.33820554 55.402947 -69.60821095 63.29853146 -70.3125 71.75 C-71.38517646 76.82083416 -75.00284597 79.85295644 -79 83 C-79.66 83 -80.32 83 -81 83 C-82.56159535 76.93704925 -83.3178372 71.26553658 -83.3359375 65.01171875 C-83.3425943 64.18726761 -83.3492511 63.36281647 -83.35610962 62.51338196 C-83.36616134 60.78148605 -83.37092898 59.049552 -83.37060547 57.31762695 C-83.37497256 54.7039236 -83.411354 52.0919208 -83.44921875 49.47851562 C-83.53332079 37.17670785 -81.83705817 27.03569702 -75.4375 16.3125 C-74.85871094 15.31863281 -74.27992188 14.32476563 -73.68359375 13.30078125 C-72 11 -72 11 -69 10 C-68.85433594 9.39027344 -68.70867187 8.78054687 -68.55859375 8.15234375 C-67.25296994 3.12158347 -60.79058015 0.07204879 -56.56640625 -2.45703125 C-38.45018809 -12.05138039 -17.11595691 -11.97198417 0 0 Z " fill="#1D1C1C" transform="translate(205,17)"/>
<path d="M0 0 C8.42046414 0.91594666 16.68819212 2.58917383 25.00195312 4.18359375 C26.15501953 4.40144531 27.30808594 4.61929687 28.49609375 4.84375 C30.16841064 5.16085937 30.16841064 5.16085937 31.87451172 5.484375 C34.61585758 5.9366264 37.26587518 6.17865935 40.03515625 6.34375 C43.39224097 6.67436028 43.98800161 6.99036113 46.80078125 9.25 C47.52652344 10.1575 48.25226563 11.065 49 12 C49.69480469 12.804375 50.38960937 13.60875 51.10546875 14.4375 C56.86668944 21.52823315 62.46505151 28.7317691 68 36 C66.43767979 39.67956291 64.16415918 42.16515793 61.4375 45.0625 C56.38664554 50.52819409 51.64371456 56.1825052 47 62 C46.30132812 62.86496094 45.60265625 63.72992188 44.8828125 64.62109375 C43.91988281 65.82958984 43.91988281 65.82958984 42.9375 67.0625 C42.36902344 67.77535156 41.80054688 68.48820312 41.21484375 69.22265625 C39.81190214 70.91638179 39.81190214 70.91638179 40 73 C34.68127248 74.2522803 30.28520847 73.68890656 24.98828125 72.8203125 C24.1382402 72.68809296 23.28819916 72.55587341 22.41239929 72.41964722 C20.62409443 72.13978257 18.83648431 71.85544605 17.04956055 71.56689453 C14.31244188 71.12499062 11.57353698 70.69606018 8.83398438 70.26953125 C7.09363203 69.99553992 5.35339337 69.72082534 3.61328125 69.4453125 C2.79451004 69.31609406 1.97573883 69.18687561 1.13215637 69.05374146 C-2.01071414 68.54476329 -4.97393603 68.00868799 -8 67 C-8.88585783 64.57152768 -9.54177137 62.31571729 -10.125 59.8125 C-10.29386719 59.17119141 -10.46273437 58.52988281 -10.63671875 57.86914062 C-11.1919845 55.5890533 -11.61052592 53.31440023 -12 51 C-12.26997803 49.49880615 -12.26997803 49.49880615 -12.54541016 47.96728516 C-13.95294641 37.13755402 -10.8518797 28.72080156 -7.125 18.75 C-6.54837959 17.14539227 -5.97414425 15.53992537 -5.40234375 13.93359375 C-1.44782621 2.89565243 -1.44782621 2.89565243 0 0 Z " fill="#932603" transform="translate(131,293)"/>
<path d="M0 0 C1.76592094 2.20511371 3.21815978 4.29539555 4.6875 6.6875 C5.56259402 8.05806376 6.4389228 9.42783981 7.31640625 10.796875 C7.75871582 11.49490234 8.20102539 12.19292969 8.65673828 12.91210938 C10.73464753 16.14189489 12.92476206 19.29031298 15.125 22.4375 C15.87007813 23.50871094 16.61515625 24.57992188 17.3828125 25.68359375 C17.91648437 26.44800781 18.45015625 27.21242188 19 28 C17.56446623 31.08771059 15.84553023 33.71315644 13.8125 36.44140625 C13.19632813 37.27220703 12.58015625 38.10300781 11.9453125 38.95898438 C10.98238281 40.24772461 10.98238281 40.24772461 10 41.5625 C8.72861318 43.27172385 7.45775706 44.98134262 6.1875 46.69140625 C5.62417969 47.44623291 5.06085938 48.20105957 4.48046875 48.97875977 C3.27708611 50.62170252 2.12965491 52.30551764 1 54 C-15.90304397 52.99323563 -15.90304397 52.99323563 -22 51 C-22.33 50.34 -22.66 49.68 -23 49 C-21.68 49 -20.36 49 -19 49 C-19 48.34 -19 47.68 -19 47 C-20.98 46.67 -22.96 46.34 -25 46 C-24.67 46.66 -24.34 47.32 -24 48 C-29.30897768 47.56364567 -32.86682847 44.62465517 -37.0625 41.625 C-37.76955078 41.13 -38.47660156 40.635 -39.20507812 40.125 C-42.51072565 37.803287 -45.78916064 35.4519137 -49 33 C-48.39497882 29.874129 -47.40795836 27.88327371 -45.48828125 25.35546875 C-44.97716797 24.67806641 -44.46605469 24.00066406 -43.93945312 23.30273438 C-43.40255859 22.60470703 -42.86566406 21.90667969 -42.3125 21.1875 C-41.79494141 20.50107422 -41.27738281 19.81464844 -40.74414062 19.10742188 C-39.69524569 17.72674697 -38.63122391 16.35743921 -37.55273438 14.99975586 C-35.99236938 13.04696027 -35.99236938 13.04696027 -34.72851562 11.04907227 C-30.27052064 4.73218695 -24.14523831 3.97415793 -16.875 2.5625 C-15.69550781 2.30791016 -14.51601562 2.05332031 -13.30078125 1.79101562 C-8.76713901 0.83425722 -4.64546117 0 0 0 Z " fill="#B02D05" transform="translate(156,234)"/>
<path d="M0 0 C8.42046414 0.91594666 16.68819212 2.58917383 25.00195312 4.18359375 C30.05775775 5.13879887 35.0489495 6.05905431 40.17578125 6.5234375 C44.93083026 7.11599723 46.08526596 8.27561762 49 12 C50.72164946 14.30348114 52.37176335 16.6274266 54 19 C51.69 19 49.38 19 47 19 C47 19.66 47 20.32 47 21 C46.01 21.495 46.01 21.495 45 22 C45.99 22.33 46.98 22.66 48 23 C48 22.34 48 21.68 48 21 C49.32 21 50.64 21 52 21 C52 22.32 52 23.64 52 25 C52.804375 25.226875 53.60875 25.45375 54.4375 25.6875 C55.7059375 26.3371875 55.7059375 26.3371875 57 27 C57.8125 29.625 57.8125 29.625 58 32 C55.36 31.67 52.72 31.34 50 31 C49.67 31.66 49.34 32.32 49 33 C48.175 32.80664062 47.35 32.61328125 46.5 32.4140625 C39.09167305 30.74388165 31.78831428 29.47868396 24.24414062 28.64697266 C21.33697302 28.32192502 18.78746804 27.92915601 16 27 C16 26.34 16 25.68 16 25 C13.358832 25.73707014 12.05364436 26.24043359 10 28 C8.54526855 30.72935328 7.50273328 33.51394028 6.41796875 36.41015625 C4.82035116 40.45481346 2.92420631 44.26145343 0.9375 48.125 C-2.04320368 53.96909507 -4.74563352 59.8301549 -7 66 C-4.36 66.33 -1.72 66.66 1 67 C1 67.33 1 67.66 1 68 C-1.97 67.67 -4.94 67.34 -8 67 C-8.66214785 64.62858676 -9.30436378 62.2541901 -9.9375 59.875 C-10.11990234 59.22917969 -10.30230469 58.58335937 -10.49023438 57.91796875 C-14.32677258 43.26936832 -12.28348555 32.55088435 -7.125 18.75 C-6.54837959 17.14539227 -5.97414425 15.53992537 -5.40234375 13.93359375 C-1.44782621 2.89565243 -1.44782621 2.89565243 0 0 Z " fill="#CA3404" transform="translate(131,293)"/>
<path d="M0 0 C2.91185201 3.5358203 4.87078232 7.47343519 6.875 11.5625 C7.22433594 12.27341797 7.57367188 12.98433594 7.93359375 13.71679688 C8.6334434 15.1461946 9.3310746 16.57668086 10.02636719 18.00830078 C10.87874128 19.7519487 11.75392736 21.48440723 12.6328125 23.21484375 C16.08374101 30.24487812 17.23219179 35.29385328 15.0625 43 C12.91028732 48.22532406 8.55990464 51.83098482 4 55 C-1.56557498 56.93772437 -7.78587137 56.8534927 -13.1875 54.5 C-20.69440335 50.1053048 -24.5266612 41.61240237 -28.375 34.125 C-28.82488281 33.27164063 -29.27476562 32.41828125 -29.73828125 31.5390625 C-33 25.27339001 -33 25.27339001 -33 23 C-30.7272325 21.50475822 -28.4320057 20.21600285 -26 19 C-25.78988281 18.40703125 -25.57976562 17.8140625 -25.36328125 17.203125 C-23.19583309 13.70042941 -19.82230215 12.49781225 -16.1875 10.75 C-15.47529297 10.38648438 -14.76308594 10.02296875 -14.02929688 9.6484375 C-10.23239232 7.77984063 -7.33713241 6.48874667 -3 7 C-2.67 6.01 -2.34 5.02 -2 4 C-2 4.99 -2 5.98 -2 7 C-1.34 4.69 -0.68 2.38 0 0 Z " fill="#FB6734" transform="translate(218,192)"/>
<path d="M0 0 C0.74314453 0.00563965 1.48628906 0.0112793 2.25195312 0.01708984 C14.34040779 0.28320447 23.13072321 4.69945234 31.6875 13.1875 C32.6746236 14.22162949 33.65699346 15.26045431 34.625 16.3125 C34.295 16.9725 33.965 17.6325 33.625 18.3125 C32.82835937 17.90257813 32.03171875 17.49265625 31.2109375 17.0703125 C30.15132813 16.53148438 29.09171875 15.99265625 28 15.4375 C26.43378906 14.63699219 26.43378906 14.63699219 24.8359375 13.8203125 C16.64969043 9.97616242 8.806279 8.87654606 0 11.375 C-6.89410188 14.00953179 -12.194551 18.68260891 -16.6875 24.4375 C-20.26302203 28.754797 -24.30814541 30.29651746 -29.484375 32.21484375 C-33.05624171 33.57118773 -36.12588379 35.31872414 -39.375 37.3125 C-40.29490705 28.11342953 -36.85460445 21.5189553 -31.80078125 13.95703125 C-31.33027344 13.41433594 -30.85976562 12.87164062 -30.375 12.3125 C-29.715 12.3125 -29.055 12.3125 -28.375 12.3125 C-28.045 11.3225 -27.715 10.3325 -27.375 9.3125 C-25.15234375 7.55859375 -25.15234375 7.55859375 -22.3125 5.75 C-21.39339844 5.15058594 -20.47429687 4.55117188 -19.52734375 3.93359375 C-13.22719033 0.6937379 -7.01479339 -0.05615685 0 0 Z " fill="#F9F8F7" transform="translate(174.375,53.6875)"/>
<path d="M0 0 C2.55766948 0.52339406 5.11250049 1.06088123 7.6640625 1.61328125 C10.57353614 2.18466772 13.29904298 2.5013034 16.25 2.66796875 C22.36482877 3.65423145 24.48984485 7.3709451 27.9375 12.10546875 C28.659375 13.15734375 29.38125 14.20921875 30.125 15.29296875 C27.815 15.29296875 25.505 15.29296875 23.125 15.29296875 C23.125 15.95296875 23.125 16.61296875 23.125 17.29296875 C22.135 17.78796875 22.135 17.78796875 21.125 18.29296875 C22.115 18.62296875 23.105 18.95296875 24.125 19.29296875 C24.125 18.63296875 24.125 17.97296875 24.125 17.29296875 C25.445 17.29296875 26.765 17.29296875 28.125 17.29296875 C28.125 18.61296875 28.125 19.93296875 28.125 21.29296875 C28.929375 21.51984375 29.73375 21.74671875 30.5625 21.98046875 C31.8309375 22.63015625 31.8309375 22.63015625 33.125 23.29296875 C33.9375 25.91796875 33.9375 25.91796875 34.125 28.29296875 C31.485 27.96296875 28.845 27.63296875 26.125 27.29296875 C25.795 27.95296875 25.465 28.61296875 25.125 29.29296875 C24.3 29.09960938 23.475 28.90625 22.625 28.70703125 C15.21667305 27.0368504 7.91331428 25.77165271 0.36914062 24.93994141 C-2.53802698 24.61489377 -5.08753196 24.22212476 -7.875 23.29296875 C-7.875 22.63296875 -7.875 21.97296875 -7.875 21.29296875 C-9.525 21.62296875 -11.175 21.95296875 -12.875 22.29296875 C-12.875 21.63296875 -12.875 20.97296875 -12.875 20.29296875 C-13.535 19.96296875 -14.195 19.63296875 -14.875 19.29296875 C-15.5 16.73046875 -15.5 16.73046875 -15.875 14.29296875 C-12.125 13.16796875 -12.125 13.16796875 -9.875 14.29296875 C-9.875 15.61296875 -9.875 16.93296875 -9.875 18.29296875 C-6.245 18.95296875 -2.615 19.61296875 1.125 20.29296875 C-1.64780706 17.21207202 -3.93826356 15.60521423 -7.875 14.29296875 C-7.215 12.64296875 -6.555 10.99296875 -5.875 9.29296875 C-6.535 9.29296875 -7.195 9.29296875 -7.875 9.29296875 C-8.205 10.28296875 -8.535 11.27296875 -8.875 12.29296875 C-10.195 12.29296875 -11.515 12.29296875 -12.875 12.29296875 C-12.875 10.64296875 -12.875 8.99296875 -12.875 7.29296875 C-10.235 7.29296875 -7.595 7.29296875 -4.875 7.29296875 C-5.205 6.30296875 -5.535 5.31296875 -5.875 4.29296875 C-9.505 3.63296875 -13.135 2.97296875 -16.875 2.29296875 C-16.875 2.95296875 -16.875 3.61296875 -16.875 4.29296875 C-17.535 4.29296875 -18.195 4.29296875 -18.875 4.29296875 C-19.205 2.97296875 -19.535 1.65296875 -19.875 0.29296875 C-14.18579237 -3.49983633 -6.4540461 -1.17760317 0 0 Z " fill="#AF2D06" transform="translate(154.875,296.70703125)"/>
<path d="M0 0 C1.0625 1.8125 1.0625 1.8125 2 4 C1.67 4.99 1.34 5.98 1 7 C1.16781909 8.99952618 1.16781909 8.99952618 1.5625 11.0625 C1.706875 12.361875 1.85125 13.66125 2 15 C1.34 15.66 0.68 16.32 0 17 C-2.625 16.625 -2.625 16.625 -5 16 C-5.495 13.03 -5.495 13.03 -6 10 C-6.928125 10.4640625 -6.928125 10.4640625 -7.875 10.9375 C-9.25 11.625 -10.625 12.3125 -12 13 C-13.02611949 14.65071396 -14.02308143 16.31970006 -15 18 C-16.5625 20.3125 -16.5625 20.3125 -18 22 C-18.66 22 -19.32 22 -20 22 C-20.2165625 22.8971875 -20.2165625 22.8971875 -20.4375 23.8125 C-20.8872439 25.56150404 -21.42892341 27.28677023 -22 29 C-22.99 29 -23.98 29 -25 29 C-25 29.66 -25 30.32 -25 31 C-27.59257669 31.86419223 -29.34037707 32.17580932 -32.01171875 32.31640625 C-32.76904297 32.35830078 -33.52636719 32.40019531 -34.30664062 32.44335938 C-35.09232422 32.48267578 -35.87800781 32.52199219 -36.6875 32.5625 C-37.48478516 32.60568359 -38.28207031 32.64886719 -39.10351562 32.69335938 C-41.06881447 32.79927368 -43.03438496 32.90012551 -45 33 C-45 33.99 -45 34.98 -45 36 C-46.32 35.01 -47.64 34.02 -49 33 C-48.39497882 29.874129 -47.40795836 27.88327371 -45.48828125 25.35546875 C-44.97716797 24.67806641 -44.46605469 24.00066406 -43.93945312 23.30273438 C-43.40255859 22.60470703 -42.86566406 21.90667969 -42.3125 21.1875 C-41.79494141 20.50107422 -41.27738281 19.81464844 -40.74414062 19.10742188 C-39.69524569 17.72674697 -38.63122391 16.35743921 -37.55273438 14.99975586 C-35.99236938 13.04696027 -35.99236938 13.04696027 -34.72851562 11.04907227 C-30.27052064 4.73218695 -24.14523831 3.97415793 -16.875 2.5625 C-15.69550781 2.30791016 -14.51601562 2.05332031 -13.30078125 1.79101562 C-8.76713901 0.83425722 -4.64546117 0 0 0 Z " fill="#CA3407" transform="translate(156,234)"/>
<path d="M0 0 C0.495 2.475 0.495 2.475 1 5 C-1.64 5.33 -4.28 5.66 -7 6 C-6.88140625 7.0621875 -6.7628125 8.124375 -6.640625 9.21875 C-5.2798783 23.16764069 -5.2798783 23.16764069 -8.5546875 28.3203125 C-12.67796304 33.11222732 -16.87038557 37.52610982 -23.3828125 38.2734375 C-32.25685572 38.60210577 -37.39736891 36.15230221 -44 30.375 C-46.66754515 25.87351756 -47.73148852 21.23548524 -47 16 C-44.99609375 14.16796875 -44.99609375 14.16796875 -43 13 C-42.2575 13.45375 -41.515 13.9075 -40.75 14.375 C-34.91157166 17.82498038 -29.89871388 19.44822152 -23 19 C-20.18423098 17.65202547 -18.38442164 16.08002738 -16 14 C-15.34 14 -14.68 14 -14 14 C-12.25150329 9.6960081 -10.6229639 5.35249409 -9 1 C-2.25 0 -2.25 0 0 0 Z " fill="#FC6733" transform="translate(278,177)"/>
<path d="M0 0 C0.99 0 1.98 0 3 0 C6.7892847 7.3079062 8.38175753 12.850828 6.0625 21 C3.91028732 26.22532406 -0.44009536 29.83098482 -5 33 C-10.56557498 34.93772437 -16.78587137 34.8534927 -22.1875 32.5 C-27.68564529 29.42718427 -31.68334581 23.80333574 -34 18 C-33.505 16.515 -33.505 16.515 -33 15 C-33 15.66 -33 16.32 -33 17 C-24.75609693 19.1373082 -17.59785382 20.6306795 -9.8203125 16.25390625 C-3.84562259 12.13829367 -1.82897604 6.69137576 0 0 Z " fill="#EE5A28" transform="translate(227,214)"/>
<path d="M0 0 C0.92941406 0.09925781 1.85882813 0.19851562 2.81640625 0.30078125 C5.4375 0.6875 5.4375 0.6875 7.65234375 1.35546875 C8.24144531 1.46503906 8.83054688 1.57460937 9.4375 1.6875 C10.0975 1.0275 10.7575 0.3675 11.4375 -0.3125 C12.13216622 3.42133094 12.48918915 6.89480873 12.4375 10.6875 C11.88964844 10.7390625 11.34179688 10.790625 10.77734375 10.84375 C4.72552734 11.70970097 -0.25617977 13.75524019 -5.625 16.5625 C-6.29217041 16.90216797 -6.95934082 17.24183594 -7.64672852 17.59179688 C-11.30959162 19.47172256 -11.30959162 19.47172256 -13.34765625 22.8671875 C-13.41855469 23.46789062 -13.48945313 24.06859375 -13.5625 24.6875 C-16.45361788 26.20914099 -18.28073412 26.6875 -21.5625 26.6875 C-22.6875 24.375 -22.6875 24.375 -23.5625 21.6875 C-22.5725 20.2025 -22.5725 20.2025 -21.5625 18.6875 C-21.24504456 17.23860081 -20.97760894 15.77820153 -20.75 14.3125 C-19.81544994 9.77956428 -18.2147483 7.64408196 -14.5625 4.6875 C-13.5725 3.8521875 -13.5725 3.8521875 -12.5625 3 C-8.3137498 0.21175768 -5.04539876 -0.58243129 0 0 Z " fill="#FC6633" transform="translate(205.5625,188.3125)"/>
<path d="M0 0 C1.65 0 3.3 0 5 0 C5 0.66 5 1.32 5 2 C5.66 2 6.32 2 7 2 C9.00276109 8.23081228 9.20751922 11.79792219 7 18 C5.4375 19.8125 5.4375 19.8125 4 21 C3.67 21.99 3.34 22.98 3 24 C2.195625 23.814375 1.39125 23.62875 0.5625 23.4375 C-0.283125 23.293125 -1.12875 23.14875 -2 23 C-2.33 23.33 -2.66 23.66 -3 24 C-6.00394731 24.35046052 -8.09273656 24.56833721 -11 24 C-14.64151023 20.88954335 -15.8549458 19.06977471 -16.5 14.3125 C-16 11 -16 11 -14.8125 9.0625 C-12.43958382 7.67148017 -10.70313576 7.78082683 -8 8 C-8 7.01 -8 6.02 -8 5 C-5.11165997 2.89229241 -3.61537605 2 0 2 C0 1.34 0 0.68 0 0 Z " fill="#FC9B78" transform="translate(254,159)"/>
<path d="M0 0 C2 3 2 3 2 7 C2.99 7.33 3.98 7.66 5 8 C5.474375 8.825 5.94875 9.65 6.4375 10.5 C7.74552024 13.15872085 7.74552024 13.15872085 10.1875 13.8125 C10.785625 13.874375 11.38375 13.93625 12 14 C12 13.34 12 12.68 12 12 C17.75 11.875 17.75 11.875 20 13 C19.44961383 17.42737107 17.82275516 20.20000356 15.25 23.8125 C14.57453125 24.78832031 13.8990625 25.76414062 13.203125 26.76953125 C11 29 11 29 8.234375 29.32421875 C7.49703125 29.21722656 6.7596875 29.11023438 6 29 C6.309375 27.88625 6.309375 27.88625 6.625 26.75 C7.05626633 23.58738025 6.48978668 22.71666983 5 20 C5 18.68 5 17.36 5 16 C4.34 16 3.68 16 3 16 C3 16.99 3 17.98 3 19 C0.39417629 19.93065133 -0.64198224 20.14917407 -3.25 19.0625 C-4.11625 18.5365625 -4.11625 18.5365625 -5 18 C-5 17.34 -5 16.68 -5 16 C-5.61875 15.690625 -6.2375 15.38125 -6.875 15.0625 C-8.25 14.375 -9.625 13.6875 -11 13 C-11 12.01 -11 11.02 -11 10 C-10.34 10 -9.68 10 -9 10 C-9.04125 9.071875 -9.0825 8.14375 -9.125 7.1875 C-9 4 -9 4 -7 1 C-4.69 1.33 -2.38 1.66 0 2 C0 1.34 0 0.68 0 0 Z " fill="#AF330E" transform="translate(146,259)"/>
<path d="M0 0 C0.83265381 0.00523682 1.66530762 0.01047363 2.52319336 0.01586914 C3.42231445 0.0190918 4.32143555 0.02231445 5.24780273 0.02563477 C6.66609375 0.03820312 6.66609375 0.03820312 8.11303711 0.05102539 C9.06243164 0.05553711 10.01182617 0.06004883 10.98999023 0.06469727 C13.34356776 0.07652429 15.69702188 0.09300514 18.05053711 0.11352539 C18.05053711 0.77352539 18.05053711 1.43352539 18.05053711 2.11352539 C16.40053711 2.11352539 14.75053711 2.11352539 13.05053711 2.11352539 C13.38053711 3.10352539 13.71053711 4.09352539 14.05053711 5.11352539 C14.05053711 5.77352539 14.05053711 6.43352539 14.05053711 7.11352539 C16.07445999 9.54223285 18.18356219 10.82832974 21.05053711 12.11352539 C19.73053711 10.46352539 18.41053711 8.81352539 17.05053711 7.11352539 C18.04053711 7.11352539 19.03053711 7.11352539 20.05053711 7.11352539 C20.05053711 6.12352539 20.05053711 5.13352539 20.05053711 4.11352539 C20.71053711 4.11352539 21.37053711 4.11352539 22.05053711 4.11352539 C22.05053711 4.77352539 22.05053711 5.43352539 22.05053711 6.11352539 C22.66928711 6.42290039 23.28803711 6.73227539 23.92553711 7.05102539 C25.30053711 7.73852539 26.67553711 8.42602539 28.05053711 9.11352539 C28.05053711 9.77352539 28.05053711 10.43352539 28.05053711 11.11352539 C30.69053711 11.44352539 33.33053711 11.77352539 36.05053711 12.11352539 C36.05053711 11.12352539 36.05053711 10.13352539 36.05053711 9.11352539 C36.71053711 9.11352539 37.37053711 9.11352539 38.05053711 9.11352539 C38.54553711 12.57852539 38.54553711 12.57852539 39.05053711 16.11352539 C40.04053711 16.44352539 41.03053711 16.77352539 42.05053711 17.11352539 C41.39053711 17.11352539 40.73053711 17.11352539 40.05053711 17.11352539 C40.05053711 18.43352539 40.05053711 19.75352539 40.05053711 21.11352539 C33.57327848 21.32246922 27.27543571 21.11438565 21.05053711 19.11352539 C20.72053711 18.45352539 20.39053711 17.79352539 20.05053711 17.11352539 C21.37053711 17.11352539 22.69053711 17.11352539 24.05053711 17.11352539 C24.05053711 16.45352539 24.05053711 15.79352539 24.05053711 15.11352539 C21.08053711 14.61852539 21.08053711 14.61852539 18.05053711 14.11352539 C18.38053711 14.77352539 18.71053711 15.43352539 19.05053711 16.11352539 C13.75184642 15.69168788 10.338561 12.76417114 6.23803711 9.67602539 C5.54516602 9.17264648 4.85229492 8.66926758 4.13842773 8.15063477 C0.36953327 5.35459779 0.36953327 5.35459779 -0.94946289 4.11352539 C-0.94946289 3.45352539 -0.94946289 2.79352539 -0.94946289 2.11352539 C-1.60946289 1.78352539 -2.26946289 1.45352539 -2.94946289 1.11352539 C-1.94946289 0.11352539 -1.94946289 0.11352539 0 0 Z " fill="#932504" transform="translate(112.949462890625,265.886474609375)"/>
<path d="M0 0 C2.03993514 4.92984325 3.40652968 8.57960425 3 14 C2.34 14 1.68 14 1 14 C1 14.66 1 15.32 1 16 C-10.23741906 22.21833466 -10.23741906 22.21833466 -15 21 C-18.52640222 17.63032676 -20.56634449 14.91476244 -21 10 C-5.76595745 0 -5.76595745 0 0 0 Z " fill="#FC9E7C" transform="translate(213,199)"/>
<path d="M0 0 C2.46318668 4.27816635 2.30945228 8.2034897 2 13 C1.01 14.485 1.01 14.485 0 16 C-0.66 16 -1.32 16 -2 16 C-2.33 16.99 -2.66 17.98 -3 19 C-10.41641337 19.48632219 -10.41641337 19.48632219 -12.875 17.4375 C-14.29265345 14.36591753 -15.1805553 11.27777881 -16 8 C-14.87926138 7.16094435 -13.75325453 6.32892169 -12.625 5.5 C-11.99851562 5.0359375 -11.37203125 4.571875 -10.7265625 4.09375 C-9 3 -9 3 -7 3 C-7 2.34 -7 1.68 -7 1 C-3.375 -1.125 -3.375 -1.125 0 0 Z " fill="#FBA07E" transform="translate(279,130)"/>
<path d="M0 0 C3.1278933 3.80942969 5.96886725 7.74950964 8.75 11.8125 C9.36681641 12.7087207 9.36681641 12.7087207 9.99609375 13.62304688 C10.99907918 15.08087454 11.9997783 16.54027474 13 18 C11.64062915 20.8605891 10.35479531 22.85927699 8 25 C1.125 22.25 1.125 22.25 0 20 C-0.66 20 -1.32 20 -2 20 C-2 18.68 -2 17.36 -2 16 C-2.495 15.525625 -2.99 15.05125 -3.5 14.5625 C-5 13 -5 13 -5.25 10.375 C-5 8 -5 8 -4 7 C-2.33382885 6.95936168 -0.66611905 6.957279 1 7 C0.67 4.69 0.34 2.38 0 0 Z " fill="#B13917" transform="translate(162,244)"/>
<path d="M0 0 C1.0625 1.8125 1.0625 1.8125 2 4 C1.67 4.99 1.34 5.98 1 7 C1.16781909 8.99952618 1.16781909 8.99952618 1.5625 11.0625 C1.706875 12.361875 1.85125 13.66125 2 15 C1.34 15.66 0.68 16.32 0 17 C-2.625 16.625 -2.625 16.625 -5 16 C-5.66 13.36 -6.32 10.72 -7 8 C-9.91517292 9.07401108 -11.77810176 9.77810176 -14 12 C-14.99 12 -15.98 12 -17 12 C-17.33 9.69 -17.66 7.38 -18 5 C-19.32 4.67 -20.64 4.34 -22 4 C-19.08444885 3.32810344 -16.16773049 2.66230692 -13.25 2 C-12.0125 1.71382812 -12.0125 1.71382812 -10.75 1.421875 C-9.95078125 1.24140625 -9.1515625 1.0609375 -8.328125 0.875 C-7.5949707 0.70742187 -6.86181641 0.53984375 -6.10644531 0.3671875 C-4 0 -4 0 0 0 Z " fill="#C44823" transform="translate(156,234)"/>
<path d="M0 0 C2 1 2 1 4 4 C4.433125 3.505 4.86625 3.01 5.3125 2.5 C7 1 7 1 10 1 C10 3.31 10 5.62 10 8 C10.33 6.35 10.66 4.7 11 3 C11.99 2.67 12.98 2.34 14 2 C14.99 3.485 14.99 3.485 16 5 C15.34 5 14.68 5 14 5 C14 5.66 14 6.32 14 7 C14.99 6.67 15.98 6.34 17 6 C17 6.99 17 7.98 17 9 C19.31 9.66 21.62 10.32 24 11 C22.25 15.875 22.25 15.875 20 17 C20 16.34 20 15.68 20 15 C19.05125 15.020625 18.1025 15.04125 17.125 15.0625 C14 15 14 15 12 14 C12 14.66 12 15.32 12 16 C11.21625 15.814375 10.4325 15.62875 9.625 15.4375 C7.02910225 14.74037734 7.02910225 14.74037734 5 16 C5 14.02 5 12.04 5 10 C3.68 9.67 2.36 9.34 1 9 C0.67 6.03 0.34 3.06 0 0 Z " fill="#AF2B03" transform="translate(146,257)"/>
<path d="M0 0 C-1.67861463 3.98047728 -3.81617997 5.14605086 -7.5078125 7.31640625 C-10.67808897 9.45808205 -13.43780413 11.9137611 -16.25 14.5 C-16.75708496 14.962854 -17.26416992 15.42570801 -17.78662109 15.90258789 C-20.82973486 18.73924412 -23.4486576 21.72127704 -26 25 C-27.66666667 26.66666667 -29.33333333 28.33333333 -31 30 C-31.33 30.66 -31.66 31.32 -32 32 C-32.66 32 -33.32 32 -34 32 C-34.103125 32.53625 -34.20625 33.0725 -34.3125 33.625 C-35.18092697 36.62502044 -36.55620296 39.2379535 -38 42 C-38.66 42 -39.32 42 -40 42 C-40.2475 42.70125 -40.495 43.4025 -40.75 44.125 C-42.16088026 47.37002459 -43.97895398 50.10316737 -46 53 C-47.05609899 49.83170302 -47.13055309 49.01480825 -46 46 C-45.0206121 44.97980427 -44.02104551 43.97850195 -43 43 C-42.67 42.01 -42.34 41.02 -42 40 C-41.34 40 -40.68 40 -40 40 C-40 39.01 -40 38.02 -40 37 C-39.34 37 -38.68 37 -38 37 C-37.91621094 36.45472656 -37.83242187 35.90945312 -37.74609375 35.34765625 C-36.74953827 32.21189792 -35.03693655 30.06175111 -33.0625 27.4375 C-30.97988335 24.6518585 -28.92961929 21.89442894 -27 19 C-26.01 19 -25.02 19 -24 19 C-23.731875 18.4225 -23.46375 17.845 -23.1875 17.25 C-21.23056191 13.5421173 -20.07061787 11.35687262 -16 10 C-15.67 9.34 -15.34 8.68 -15 8 C-14.34 8 -13.68 8 -13 8 C-13 7.34 -13 6.68 -13 6 C-11.21118264 4.99491199 -9.41885304 3.99607264 -7.625 3 C-6.62726563 2.443125 -5.62953125 1.88625 -4.6015625 1.3125 C-2 0 -2 0 0 0 Z " fill="#DC4A18" transform="translate(222,114)"/>
<path d="M0 0 C4.53456943 1.51152314 6.61126059 5.1192404 9 9 C9.39832031 9.59167969 9.79664063 10.18335937 10.20703125 10.79296875 C14.84550445 19.00454145 14.42814041 30.84801054 12.33984375 39.84375 C11.40473675 42.07829139 10.32543627 43.97309015 9 46 C8.45601562 46.91136719 7.91203125 47.82273438 7.3515625 48.76171875 C-0.98172604 62.38973866 -0.98172604 62.38973866 -5.14453125 63.6484375 C-5.75683594 63.76445312 -6.36914062 63.88046875 -7 64 C-6.0843974 62.77004051 -5.16745797 61.54107614 -4.25 60.3125 C-3.70085937 59.57515625 -3.15171875 58.8378125 -2.5859375 58.078125 C-1.40397196 56.52934256 -0.15527909 55.03105543 1.125 53.5625 C8.38063637 43.64646362 10.18891914 31.99965332 9 20 C7.49688523 12.72004955 5.09163076 7.37449913 0 2 C0 1.34 0 0.68 0 0 Z " fill="#DB4A17" transform="translate(160,95)"/>
<path d="M0 0 C2 3 2 3 2 7 C2.99 7.33 3.98 7.66 5 8 C4.67 8.66 4.34 9.32 4 10 C2.35 10 0.7 10 -1 10 C-1.33 11.65 -1.66 13.3 -2 15 C-0.35 15.33 1.3 15.66 3 16 C3 16.99 3 17.98 3 19 C0.39417629 19.93065133 -0.64198224 20.14917407 -3.25 19.0625 C-4.11625 18.5365625 -4.11625 18.5365625 -5 18 C-5 17.34 -5 16.68 -5 16 C-5.61875 15.690625 -6.2375 15.38125 -6.875 15.0625 C-8.25 14.375 -9.625 13.6875 -11 13 C-11 12.01 -11 11.02 -11 10 C-10.34 10 -9.68 10 -9 10 C-9.04125 9.071875 -9.0825 8.14375 -9.125 7.1875 C-9 4 -9 4 -7 1 C-4.69 1.33 -2.38 1.66 0 2 C0 1.34 0 0.68 0 0 Z " fill="#AE300A" transform="translate(146,259)"/>
<path d="M0 0 C2.75348442 2.03518414 3.01423025 3.08111243 3.625 6.5625 C3.74875 7.696875 3.8725 8.83125 4 10 C4.33 10.66 4.66 11.32 5 12 C5.33 11.34 5.66 10.68 6 10 C6.66 10 7.32 10 8 10 C7.70703125 12.05078125 7.4140625 14.1015625 7.12109375 16.15234375 C7.08113281 16.76207031 7.04117188 17.37179687 7 18 C7.33 18.33 7.66 18.66 8 19 C7.52309796 20.62566606 7.04340334 22.25051311 6.5625 23.875 C6.29566406 24.77992188 6.02882813 25.68484375 5.75390625 26.6171875 C5 29 5 29 4 31 C6.64 31.33 9.28 31.66 12 32 C12 32.33 12 32.66 12 33 C9.03 32.67 6.06 32.34 3 32 C0.25766733 22.17862253 -2.44782323 12.29993418 -2 2 C-1.34 1.34 -0.68 0.68 0 0 Z " fill="#CC3608" transform="translate(120,328)"/>
<path d="M0 0 C0.99 0 1.98 0 3 0 C4.30273438 1.3894043 4.30273438 1.3894043 5.59375 3.32421875 C6.06683594 4.02353516 6.53992188 4.72285156 7.02734375 5.44335938 C7.51332031 6.18392578 7.99929687 6.92449219 8.5 7.6875 C8.98597656 8.40873047 9.47195312 9.12996094 9.97265625 9.87304688 C12.41935227 13.52309066 14.783806 17.20401907 17 21 C16.34 21.99 15.68 22.98 15 24 C14.60986284 25.9896995 14.26797351 27.99019869 14 30 C11.00113932 26.38455115 9.0973878 22.38518284 7.0625 18.1875 C6.38876906 16.80498854 5.71299882 15.42346894 5.03515625 14.04296875 C4.70531738 13.36927246 4.37547852 12.69557617 4.03564453 12.00146484 C3.00004093 10.00007909 1.85893406 8.09764197 0.68359375 6.17578125 C0.12800781 5.12777344 -0.42757812 4.07976562 -1 3 C-0.67 2.01 -0.34 1.02 0 0 Z " fill="#F9D3C4" transform="translate(216,184)"/>
<path d="M0 0 C1.8125 0.125 1.8125 0.125 4 1 C6.91893406 5.37840108 7.39209478 8.8047442 7 14 C6.67 14.99 6.34 15.98 6 17 C3.69 17.33 1.38 17.66 -1 18 C-5 11.81818182 -5 11.81818182 -5 8.4375 C-3.71989804 5.31725147 -1.96768392 2.72936802 0 0 Z " fill="#FC7343" transform="translate(287,86)"/>
<path d="M0 0 C3.14629384 -0.49678324 4.97620331 -0.7705633 8 0 C10.8692907 2.63068025 12.86206878 5.7656938 15 9 C16.13647276 10.52784087 17.28161497 12.0492922 18.4375 13.5625 C19.29250133 14.70771066 20.14700232 15.85329616 21 17 C20.34 18.32 19.68 19.64 19 21 C18.401875 20.401875 17.80375 19.80375 17.1875 19.1875 C12.77954758 16.16243461 8.16222151 15.19336819 3 14 C3 13.34 3 12.68 3 12 C5.31 12 7.62 12 10 12 C10 10.68 10 9.36 10 8 C8.7934375 7.814375 8.7934375 7.814375 7.5625 7.625 C6.716875 7.41875 5.87125 7.2125 5 7 C4.67 6.34 4.34 5.68 4 5 C4.33 4.01 4.66 3.02 5 2 C3.68 2 2.36 2 1 2 C1 2.66 1 3.32 1 4 C-0.32 3.67 -1.64 3.34 -3 3 C-2.01 2.67 -1.02 2.34 0 2 C0 1.34 0 0.68 0 0 Z " fill="#AC2C04" transform="translate(178,312)"/>
<path d="M0 0 C2.8712936 0.25568326 5.70565708 0.56806088 8.5625 0.9375 C9.36880859 1.03740234 10.17511719 1.13730469 11.00585938 1.24023438 C13.00452132 1.48858882 15.00234487 1.7436731 17 2 C16.34 2.66 15.68 3.32 15 4 C15.99 5.32 16.98 6.64 18 8 C17.01 8.33 16.02 8.66 15 9 C15 9.66 15 10.32 15 11 C12.39442509 10.71815415 9.79099602 10.42497289 7.1875 10.125 C6.08051758 10.00705078 6.08051758 10.00705078 4.95117188 9.88671875 C1.28493819 9.45539714 -0.87951745 9.0803217 -4 7 C-4 6.34 -4 5.68 -4 5 C-1.69 4.34 0.62 3.68 3 3 C1.68 2.34 0.36 1.68 -1 1 C-0.67 0.67 -0.34 0.34 0 0 Z " fill="#F9D0C0" transform="translate(140,286)"/>
<path d="M0 0 C0.33 0.66 0.66 1.32 1 2 C2.31252882 2.70674629 3.65278717 3.36184656 5 4 C6.16950326 4.68266353 7.33595619 5.37056838 8.5 6.0625 C10.97227968 7.4927005 13.14529528 8.54324724 16 9 C16 9.66 16 10.32 16 11 C19.04389963 10.57505956 22.08448979 10.13555172 25.125 9.6875 C25.9809375 9.56955078 26.836875 9.45160156 27.71875 9.33007812 C32.68341609 8.58537821 36.60320955 7.56479443 41 5 C41.69867188 4.61457031 42.39734375 4.22914062 43.1171875 3.83203125 C43.69726562 3.49558594 44.27734375 3.15914063 44.875 2.8125 C45.90625 2.214375 46.9375 1.61625 48 1 C46.10692193 5.81874419 42.6083196 8.17964906 38.08984375 10.484375 C29.98195424 13.73958714 22.036362 16.22243593 13.49609375 13.078125 C8.66150456 10.55857598 3.55300719 7.18135252 0 3 C0 2.01 0 1.02 0 0 Z " fill="#DC4B19" transform="translate(174,104)"/>
<path d="M0 0 C2 0.125 2 0.125 4 1 C5.72101535 3.58152302 6 4.84918025 6 8 C6.66 8.33 7.32 8.66 8 9 C8 10.65 8 12.3 8 14 C8.99 14.33 9.98 14.66 11 15 C10.67 17.31 10.34 19.62 10 22 C9.67 22 9.34 22 9 22 C9 20.02 9 18.04 9 16 C8.34 16 7.68 16 7 16 C6.67 16.66 6.34 17.32 6 18 C5.01 18 4.02 18 3 18 C1.30911778 19.97956942 -0.35830472 21.97945196 -2 24 C-2.66 24 -3.32 24 -4 24 C-3.36585366 19.30731707 -3.36585366 19.30731707 -1.4375 17.6875 C0.59378342 15.3029499 0.34463416 13.1024779 0.23828125 10.07421875 C-0.09052961 7.21194718 -0.93347813 4.66630467 -2 2 C-1.34 1.34 -0.68 0.68 0 0 Z " fill="#FB6A39" transform="translate(280,127)"/>
<path d="M0 0 C3.3 0.33 6.6 0.66 10 1 C10.33 2.32 10.66 3.64 11 5 C8.36 5 5.72 5 3 5 C3 5.66 3 6.32 3 7 C3.66 7.33 4.32 7.66 5 8 C4.34 8 3.68 8 3 8 C3 8.66 3 9.32 3 10 C4.97536745 9.65213292 4.97536745 9.65213292 7 9 C7.33 8.34 7.66 7.68 8 7 C8.66 7 9.32 7 10 7 C10.5625 8.9375 10.5625 8.9375 11 11 C10.67 11.33 10.34 11.66 10 12 C13.465 13.98 13.465 13.98 17 16 C17 16.66 17 17.32 17 18 C9.57142857 18.28571429 9.57142857 18.28571429 6 16 C6 14.68 6 13.36 6 12 C4.02 12 2.04 12 0 12 C-0.33 11.01 -0.66 10.02 -1 9 C-0.484375 8.195625 0.03125 7.39125 0.5625 6.5625 C1.2740625 5.2940625 1.2740625 5.2940625 2 4 C1.34 2.68 0.68 1.36 0 0 Z " fill="#B13E16" transform="translate(139,299)"/>
<path d="M0 0 C0.66 0 1.32 0 2 0 C2.0270043 1.45823212 2.04639787 2.91660675 2.0625 4.375 C2.07410156 5.18710938 2.08570312 5.99921875 2.09765625 6.8359375 C2 9 2 9 1 11 C-0.32 10.67 -1.64 10.34 -3 10 C-3.20496094 10.84304687 -3.40992187 11.68609375 -3.62109375 12.5546875 C-3.89050781 13.65039062 -4.15992187 14.74609375 -4.4375 15.875 C-4.70433594 16.96554688 -4.97117187 18.05609375 -5.24609375 19.1796875 C-6 22 -6 22 -7 24 C-9.31 23.67 -11.62 23.34 -14 23 C-13.55269531 22.23816406 -13.10539062 21.47632813 -12.64453125 20.69140625 C-9.36108713 15.08364774 -6.11586675 9.46847523 -3.04296875 3.7421875 C-2 2 -2 2 0 0 Z " fill="#FA6531" transform="translate(92,151)"/>
<path d="M0 0 C0 1.98 0 3.96 0 6 C-0.66 6 -1.32 6 -2 6 C-2 6.99 -2 7.98 -2 9 C-1.34 9 -0.68 9 0 9 C-0.3125 11.375 -0.3125 11.375 -1 14 C-4 16 -4 16 -7 16 C-9.09230769 11.56923077 -9.09230769 11.56923077 -8.625 8.6875 C-8.41875 8.130625 -8.2125 7.57375 -8 7 C-8.66 6.67 -9.32 6.34 -10 6 C-6.56548857 1.21621622 -6.56548857 1.21621622 -3.875 0.1875 C-2 0 -2 0 0 0 Z " fill="#CF4C27" transform="translate(132,239)"/>
<path d="M0 0 C8.35697596 2.08924399 14.21310558 7.92376086 20 14 C19.67 14.66 19.34 15.32 19 16 C18.20335937 15.59007813 17.40671875 15.18015625 16.5859375 14.7578125 C15.52632812 14.21898438 14.46671875 13.68015625 13.375 13.125 C12.33085937 12.59132813 11.28671875 12.05765625 10.2109375 11.5078125 C7.18198375 10.08545709 4.19356666 8.9877999 1 8 C1.66 6.68 2.32 5.36 3 4 C2.01 3.67 1.02 3.34 0 3 C0 2.01 0 1.02 0 0 Z " fill="#F3F1ED" transform="translate(189,56)"/>
<path d="M0 0 C0.33 0 0.66 0 1 0 C1.3690205 16.8929385 1.3690205 16.8929385 -1 24 C-4.57855312 19.33232202 -5.38888115 16.55841004 -5.36328125 10.6875 C-4.78824109 6.43343949 -2.75742913 3.23658895 0 0 Z " fill="#FA6734" transform="translate(77,175)"/>
<path d="M0 0 C2.31 0.66 4.62 1.32 7 2 C3.9334178 5.27807063 2.03949537 6.83808586 -2.55859375 7.203125 C-3.50863281 7.21859375 -4.45867187 7.2340625 -5.4375 7.25 C-6.38496094 7.27578125 -7.33242187 7.3015625 -8.30859375 7.328125 C-11.3902834 6.95241828 -12.71972555 6.0484735 -15 4 C-11.84493858 3.06380187 -9.03413498 2.8942877 -5.75 2.9375 C-4.85796875 2.94652344 -3.9659375 2.95554688 -3.046875 2.96484375 C-2.37140625 2.97644531 -1.6959375 2.98804688 -1 3 C-0.67 2.01 -0.34 1.02 0 0 Z " fill="#FA6F3D" transform="translate(257,208)"/>
<path d="M0 0 C1.01560704 2.58518155 1.14715729 3.6468225 0.0625 6.25 C-3.15383974 8.97901554 -5.87128065 8.2707357 -10 8 C-10.75 6.25 -10.75 6.25 -11 4 C-8.00042166 -0.49936751 -5.13756651 -0.39519742 0 0 Z " fill="#ECBDAC" transform="translate(163,339)"/>
<path d="M0 0 C0.99 0 1.98 0 3 0 C3.25112548 2.52033159 3.47626233 5.03876568 3.6875 7.5625 C3.76033203 8.26697266 3.83316406 8.97144531 3.90820312 9.69726562 C4.32264181 14.98745355 3.41591833 18.27374332 1 23 C-1.42170546 19.24779234 -1.23492777 15.88060126 -1.1875 11.5 C-1.18105469 10.1903125 -1.17460937 8.880625 -1.16796875 7.53125 C-1.03780602 4.79480564 -0.82440789 2.58534313 0 0 Z " fill="#F96C3A" transform="translate(288,151)"/>
<path d="M0 0 C0.66 0.99 1.32 1.98 2 3 C-3.66507011 6.08900201 -8.50857435 8.57664615 -15 9 C-16 4.25 -16 4.25 -16 2 C-13.03824877 2.61277612 -11.61941217 3.25372522 -9 5 C-9.33 4.01 -9.66 3.02 -10 2 C-6.67395049 0.89131683 -3.46941546 0.45822468 0 0 Z " fill="#FA6935" transform="translate(110,198)"/>
<path d="M0 0 C2.02408755 0.09002398 4.04544287 0.24641038 6.0625 0.4375 C7.71958984 0.59025391 7.71958984 0.59025391 9.41015625 0.74609375 C10.26480469 0.82988281 11.11945313 0.91367187 12 1 C11.04867187 1.18369141 11.04867187 1.18369141 10.078125 1.37109375 C7.80283433 1.80696091 7.80283433 1.80696091 6.75 4.0625 C6.5025 4.701875 6.255 5.34125 6 6 C6.99 7.32 7.98 8.64 9 10 C7.39504433 9.88557539 5.79101881 9.75805306 4.1875 9.625 C2.84751953 9.52058594 2.84751953 9.52058594 1.48046875 9.4140625 C-1 9 -1 9 -4 7 C-4 6.34 -4 5.68 -4 5 C-1.69 4.34 0.62 3.68 3 3 C1.68 2.34 0.36 1.68 -1 1 C-0.67 0.67 -0.34 0.34 0 0 Z " fill="#F4C9B8" transform="translate(140,286)"/>
<path d="M0 0 C2 0 4 0 6 0 C6.64428711 1.81152344 6.64428711 1.81152344 7 4 C5.25251356 6.28267265 3.56837316 8.22229751 1.5625 10.25 C1.03333984 10.80429688 0.50417969 11.35859375 -0.04101562 11.9296875 C-1.34956405 13.29717954 -2.6733804 14.65003189 -4 16 C-4.66 15.67 -5.32 15.34 -6 15 C-5.67 13.68 -5.34 12.36 -5 11 C-4.34 11 -3.68 11 -3 11 C-3 10.34 -3 9.68 -3 9 C-2.34 8.67 -1.68 8.34 -1 8 C-0.26247266 4.02707303 -0.26247266 4.02707303 0 0 Z " fill="#F96A38" transform="translate(119,183)"/>
<path d="M0 0 C0.66 0 1.32 0 2 0 C1.64766839 5.4611399 1.64766839 5.4611399 1 8 C-1.0625 9.5 -1.0625 9.5 -3 10 C-3 11.32 -3 12.64 -3 14 C-3.99 14.33 -4.98 14.66 -6 15 C-6 16.32 -6 17.64 -6 19 C-7.32 19.33 -8.64 19.66 -10 20 C-9.54901762 18.06077578 -9.08894441 16.12366406 -8.625 14.1875 C-8.24214844 12.56908203 -8.24214844 12.56908203 -7.8515625 10.91796875 C-7 8 -7 8 -5 5 C-5 5.66 -5 6.32 -5 7 C-4.34 7 -3.68 7 -3 7 C-2.01 4.69 -1.02 2.38 0 0 Z " fill="#CF4820" transform="translate(131,304)"/>
<path d="M0 0 C1 4 1 4 0 6 C-0.66 6 -1.32 6 -2 6 C-2.33 7.32 -2.66 8.64 -3 10 C-2.34 10.33 -1.68 10.66 -1 11 C-1.3125 12.875 -1.3125 12.875 -2 15 C-5 17 -5 17 -8 17 C-8 16.01 -8 15.02 -8 14 C-8.66 13.67 -9.32 13.34 -10 13 C-5.05 6.565 -5.05 6.565 0 0 Z " fill="#CB4D29" transform="translate(121,246)"/>
<path d="M0 0 C4.69161125 5.91271554 5.25651221 11.6894019 5 19 C4.34 17.68 3.68 16.36 3 15 C2.67 16.98 2.34 18.96 2 21 C1.67 20.34 1.34 19.68 1 19 C0.34 19 -0.32 19 -1 19 C-1.10349817 12.58311325 -0.74507544 6.37305598 0 0 Z " fill="#EC6232" transform="translate(296,92)"/>
<path d="M0 0 C0.33 1.65 0.66 3.3 1 5 C-1.64 5.33 -4.28 5.66 -7 6 C-7 6.66 -7 7.32 -7 8 C-9.5 9.625 -9.5 9.625 -12 11 C-11.69201674 9.51988629 -11.378482 8.04092675 -11.0625 6.5625 C-10.88847656 5.73878906 -10.71445312 4.91507813 -10.53515625 4.06640625 C-10 2 -10 2 -9 1 C-2.88888889 0 -2.88888889 0 0 0 Z " fill="#FB6D3D" transform="translate(278,177)"/>
<path d="M0 0 C0.99 0 1.98 0 3 0 C3 0.99 3 1.98 3 3 C5.31 2.01 7.62 1.02 10 0 C10 0.66 10 1.32 10 2 C10.66 2.33 11.32 2.66 12 3 C10.02 3.66 8.04 4.32 6 5 C6 5.33 6 5.66 6 6 C4.35 6.33 2.7 6.66 1 7 C1 7.99 1 8.98 1 10 C-0.32 9.01 -1.64 8.02 -3 7 C-2.38722388 4.03824877 -1.74627478 2.61941217 0 0 Z " fill="#C73609" transform="translate(110,260)"/>
<path d="M0 0 C1.65 0 3.3 0 5 0 C5 0.66 5 1.32 5 2 C5.66 2 6.32 2 7 2 C9.00276109 8.23081228 9.20751922 11.79792219 7 18 C5.4375 19.8125 5.4375 19.8125 4 21 C3.67 21.99 3.34 22.98 3 24 C0.525 23.01 0.525 23.01 -2 22 C0.25740623 19.66475218 2.2805761 17.81294927 5 16 C5.58592634 12.88389446 5.58592634 12.88389446 5.6875 9.375 C5.75324219 8.18648437 5.81898438 6.99796875 5.88671875 5.7734375 C5.92410156 4.85820312 5.96148437 3.94296875 6 3 C5.34 3 4.68 3 4 3 C4 2.34 4 1.68 4 1 C2.68 1.33 1.36 1.66 0 2 C0 1.34 0 0.68 0 0 Z " fill="#FB7E53" transform="translate(254,159)"/>
<path d="M0 0 C2.31 0 4.62 0 7 0 C7.33 0.66 7.66 1.32 8 2 C7 5 7 5 5 6 C5.99 6.66 6.98 7.32 8 8 C8 8.66 8 9.32 8 10 C4.34410148 9.10633592 2.44133938 8.55523341 0.0625 5.5625 C-1 3 -1 3 0 0 Z " fill="#C2795F" transform="translate(126,268)"/>
<path d="M0 0 C2 2 2 2 4 5 C3.9765625 7.26171875 3.9765625 7.26171875 3.625 9.6875 C3.51414062 10.49574219 3.40328125 11.30398438 3.2890625 12.13671875 C3.19367188 12.75160156 3.09828125 13.36648438 3 14 C3.99 14.33 4.98 14.66 6 15 C5.34 15 4.68 15 4 15 C3.67 16.65 3.34 18.3 3 20 C2.67 20 2.34 20 2 20 C1.81824219 18.98679687 1.81824219 18.98679687 1.6328125 17.953125 C1.46523437 17.06109375 1.29765625 16.1690625 1.125 15.25 C0.96257812 14.36828125 0.80015625 13.4865625 0.6328125 12.578125 C0.02843717 10.11585512 -0.78002432 8.20940478 -2 6 C-2.33 5.34 -2.66 4.68 -3 4 C-2.67 3.01 -2.34 2.02 -2 1 C-1.34 0.67 -0.68 0.34 0 0 Z " fill="#CE390E" transform="translate(122,323)"/>
<path d="M0 0 C-1.98 0.99 -1.98 0.99 -4 2 C-3.67 3.32 -3.34 4.64 -3 6 C-2.34 6 -1.68 6 -1 6 C-0.67 5.34 -0.34 4.68 0 4 C0.99 5.32 1.98 6.64 3 8 C1.625 10.5 1.625 10.5 0 13 C-0.66 13 -1.32 13 -2 13 C-4.02055843 8.60748167 -5.40895235 4.84659077 -6 0 C-3 -1 -3 -1 0 0 Z " fill="#B22F08" transform="translate(139,295)"/>
<path d="M0 0 C0.66 0 1.32 0 2 0 C2 0.99 2 1.98 2 3 C2.66 3 3.32 3 4 3 C4 4.65 4 6.3 4 8 C3.34 8 2.68 8 2 8 C2.02320313 8.65226563 2.04640625 9.30453125 2.0703125 9.9765625 C2.17583753 15.08698903 2.01926302 19.20425033 0 24 C-0.99 24 -1.98 24 -3 24 C-1.125 18.25 -1.125 18.25 0 16 C0.07181821 13.28239892 0.09299506 10.59140612 0.0625 7.875 C0.05798828 7.12089844 0.05347656 6.36679688 0.04882812 5.58984375 C0.03703499 3.72652873 0.01909942 1.86325445 0 0 Z " fill="#FACAB6" transform="translate(271,183)"/>
<path d="M0 0 C0.33 0.66 0.66 1.32 1 2 C1.66 2 2.32 2 3 2 C2.6875 4.375 2.6875 4.375 2 7 C-1 9 -1 9 -4 9 C-4.66 7.35 -5.32 5.7 -6 4 C-4.02 2.68 -2.04 1.36 0 0 Z " fill="#CB4019" transform="translate(129,246)"/>
<path d="M0 0 C4.75 0.875 4.75 0.875 7 2 C7 2.66 7 3.32 7 4 C6.01 4.33 5.02 4.66 4 5 C5.65 5.33 7.3 5.66 9 6 C9 6.33 9 6.66 9 7 C8.030625 7.12375 7.06125 7.2475 6.0625 7.375 C4.5465625 7.684375 4.5465625 7.684375 3 8 C2.67 8.66 2.34 9.32 2 10 C2.66 10.33 3.32 10.66 4 11 C3.67 11.99 3.34 12.98 3 14 C2.01 13.67 1.02 13.34 0 13 C0.185625 11.783125 0.37125 10.56625 0.5625 9.3125 C0.98993182 5.97022061 0.92258883 3.28031583 0 0 Z " fill="#F4C7B6" transform="translate(130,279)"/>
<path d="M0 0 C1.65 0.33 3.3 0.66 5 1 C5.625 3.375 5.625 3.375 6 6 C5.34 6.66 4.68 7.32 4 8 C1.875 7.625 1.875 7.625 0 7 C-1.125 2.25 -1.125 2.25 0 0 Z " fill="#F4DBCE" transform="translate(138,261)"/>
<path d="M0 0 C0.66 0 1.32 0 2 0 C2.33 2.31 2.66 4.62 3 7 C3.99 7.33 4.98 7.66 6 8 C5.34 8 4.68 8 4 8 C3.67 8.99 3.34 9.98 3 11 C1.35 10.67 -0.3 10.34 -2 10 C-1.34 9.34 -0.68 8.68 0 8 C-1.32 6.68 -2.64 5.36 -4 4 C-2.68 3.67 -1.36 3.34 0 3 C0 2.01 0 1.02 0 0 Z " fill="#AA2904" transform="translate(149,275)"/>
<path d="M0 0 C2 3 2 3 2 7 C2.99 7.33 3.98 7.66 5 8 C4.67 8.66 4.34 9.32 4 10 C1.36 10 -1.28 10 -4 10 C-3.67 8.02 -3.34 6.04 -3 4 C-4.32 3.01 -5.64 2.02 -7 1 C-4.69 1.33 -2.38 1.66 0 2 C0 1.34 0 0.68 0 0 Z " fill="#B5401E" transform="translate(146,259)"/>
<path d="M0 0 C1.2065625 0.0309375 1.2065625 0.0309375 2.4375 0.0625 C2.4375 2.3725 2.4375 4.6825 2.4375 7.0625 C0.5625 7.6875 0.5625 7.6875 -1.5625 8.0625 C-3.5625 6.0625 -3.5625 6.0625 -3.75 3.5 C-3.4919783 0.14571793 -3.38163728 0.08247896 0 0 Z " fill="#F3DFD1" transform="translate(160.5625,250.9375)"/>
<path d="M0 0 C1.2065625 0.0309375 1.2065625 0.0309375 2.4375 0.0625 C3.0625 2.4375 3.0625 2.4375 3.4375 5.0625 C2.7775 5.7225 2.1175 6.3825 1.4375 7.0625 C-1.1875 6.6875 -1.1875 6.6875 -3.5625 6.0625 C-3.605221 4.39638095 -3.60313832 2.72867115 -3.5625 1.0625 C-2.5625 0.0625 -2.5625 0.0625 0 0 Z " fill="#F2D4C7" transform="translate(147.5625,267.9375)"/>
<path d="M0 0 C1.67542976 0.28604898 3.34385343 0.61781233 5 1 C5.125 3.375 5.125 3.375 5 6 C4.34 6.66 3.68 7.32 3 8 C0.875 7.625 0.875 7.625 -1 7 C-1.04254356 5.00045254 -1.04080783 2.99958364 -1 1 C-0.67 0.67 -0.34 0.34 0 0 Z " fill="#F6E3D7" transform="translate(153,243)"/>
<path d="M0 0 C2 1.375 2 1.375 4 3 C4 3.66 4 4.32 4 5 C2.35 4.67 0.7 4.34 -1 4 C-1.04125 4.61875 -1.0825 5.2375 -1.125 5.875 C-2 8 -2 8 -4.8125 9.3125 C-7.91991921 9.98272767 -9.08061566 9.88024821 -12 9 C-11.38511719 8.60167969 -10.77023438 8.20335937 -10.13671875 7.79296875 C-9.32847656 7.26316406 -8.52023438 6.73335937 -7.6875 6.1875 C-6.88699219 5.66542969 -6.08648437 5.14335937 -5.26171875 4.60546875 C-3.2762598 3.19610151 -1.6508148 1.77903343 0 0 Z " fill="#FACEBE" transform="translate(120,193)"/>
<path d="M0 0 C0.66 0.33 1.32 0.66 2 1 C1.01 2.485 1.01 2.485 0 4 C0.99 3.67 1.98 3.34 3 3 C3 5.31 3 7.62 3 10 C4.11375 10.144375 5.2275 10.28875 6.375 10.4375 C10 11 10 11 12 12 C11 13 11 13 7.125 13.3125 C3.29288321 13.24406934 3.29288321 13.24406934 1.125 11.4375 C-0.29265345 8.36591753 -1.1805553 5.27777881 -2 2 C-1.34 1.34 -0.68 0.68 0 0 Z " fill="#FC936C" transform="translate(265,136)"/>
<path d="M0 0 C4.13347071 0.47239665 7.35761877 2.05174957 11 4 C10.67 4.66 10.34 5.32 10 6 C8.906875 5.814375 7.81375 5.62875 6.6875 5.4375 C3.06375867 4.7421932 3.06375867 4.7421932 0 6 C-0.38218767 4.34385343 -0.71395102 2.67542976 -1 1 C-0.67 0.67 -0.34 0.34 0 0 Z " fill="#EA5824" transform="translate(208,73)"/>
<path d="M0 0 C6.35051546 -0.36637589 6.35051546 -0.36637589 9.4375 1.375 C11 3 11 3 11 5 C3.57142857 5.28571429 3.57142857 5.28571429 0 3 C0 2.01 0 1.02 0 0 Z " fill="#F3DACB" transform="translate(145,312)"/>
<path d="M0 0 C1.5 1.375 1.5 1.375 3 3 C3 3.66 3 4.32 3 5 C3.69867188 4.97679687 4.39734375 4.95359375 5.1171875 4.9296875 C6.02726563 4.91164063 6.93734375 4.89359375 7.875 4.875 C9.23238281 4.84019531 9.23238281 4.84019531 10.6171875 4.8046875 C13 5 13 5 15 7 C8.52274137 7.20894383 2.2248986 7.00086026 -4 5 C-4.33 4.34 -4.66 3.68 -5 3 C-4.360625 2.87625 -3.72125 2.7525 -3.0625 2.625 C-2.0415625 2.315625 -2.0415625 2.315625 -1 2 C-0.67 1.34 -0.34 0.68 0 0 Z " fill="#942E10" transform="translate(138,280)"/>
<path d="M0 0 C1.65 0.33 3.3 0.66 5 1 C5.33 2.65 5.66 4.3 6 6 C3.625 6.625 3.625 6.625 1 7 C0.34 6.34 -0.32 5.68 -1 5 C-0.625 2.375 -0.625 2.375 0 0 Z " fill="#F0D6C7" transform="translate(152,274)"/>
<path d="M0 0 C6.35051546 -0.36637589 6.35051546 -0.36637589 9.4375 1.375 C11 3 11 3 11 5 C9.54052295 4.93993922 8.08220728 4.8511311 6.625 4.75 C5.81289062 4.70359375 5.00078125 4.6571875 4.1640625 4.609375 C2 4 2 4 0.7109375 1.953125 C0.47632813 1.30859375 0.24171875 0.6640625 0 0 Z " fill="#F4DCCD" transform="translate(176,318)"/>
<path d="M0 0 C0.66 2.31 1.32 4.62 2 7 C0.35 7.33 -1.3 7.66 -3 8 C-3 7.34 -3 6.68 -3 6 C-3.66 5.67 -4.32 5.34 -5 5 C-5.625 2.4375 -5.625 2.4375 -6 0 C-3.50907189 -1.24546405 -2.58919267 -0.7767578 0 0 Z " fill="#B02E06" transform="translate(145,311)"/>
<path d="M0 0 C7.74468085 0.74468085 7.74468085 0.74468085 11 4 C11 4.66 11 5.32 11 6 C3.25531915 5.25531915 3.25531915 5.25531915 0 2 C0 1.34 0 0.68 0 0 Z " fill="#F0CEBF" transform="translate(165,303)"/>
<path d="M0 0 C1.65 0 3.3 0 5 0 C4.67 0.99 4.34 1.98 4 3 C3.34 2.67 2.68 2.34 2 2 C2 3.98 2 5.96 2 8 C1.01 8.33 0.02 8.66 -1 9 C-1.73323796 11.01508358 -1.73323796 11.01508358 -2 13 C-2.66 13 -3.32 13 -4 13 C-2.93204565 8.49933525 -1.85961414 4.2505466 0 0 Z " fill="#C6431D" transform="translate(131,293)"/>
<path d="M0 0 C1.98 0 3.96 0 6 0 C4.47793991 2.62901288 3.15634036 4.84365964 1 7 C-1.3828125 6.9765625 -1.3828125 6.9765625 -4.125 6.625 C-5.03507813 6.51414062 -5.94515625 6.40328125 -6.8828125 6.2890625 C-7.93082031 6.14597656 -7.93082031 6.14597656 -9 6 C-9 5.67 -9 5.34 -9 5 C-6.03 5 -3.06 5 0 5 C-2.31 4.67 -4.62 4.34 -7 4 C-7 3.67 -7 3.34 -7 3 C-4.36 3 -1.72 3 1 3 C0.67 2.01 0.34 1.02 0 0 Z " fill="#BD7A62" transform="translate(168,360)"/>
<path d="M0 0 C1.67542976 0.28604898 3.34385343 0.61781233 5 1 C5.042721 2.66611905 5.04063832 4.33382885 5 6 C4 7 4 7 1.4375 7.0625 C0.2309375 7.0315625 0.2309375 7.0315625 -1 7 C-1.04254356 5.00045254 -1.04080783 2.99958364 -1 1 C-0.67 0.67 -0.34 0.34 0 0 Z " fill="#F1D6C5" transform="translate(164,259)"/>
<path d="M0 0 C0 0.33 0 0.66 0 1 C-0.969375 1.12375 -1.93875 1.2475 -2.9375 1.375 C-4.4534375 1.684375 -4.4534375 1.684375 -6 2 C-6.33 2.66 -6.66 3.32 -7 4 C-9.83906038 4.59528685 -12.14434325 5.06881101 -15 5 C-17 3.5625 -17 3.5625 -18 2 C-11.92972642 -0.1583195 -6.40629424 -0.20852314 0 0 Z " fill="#EE6838" transform="translate(190,63)"/>
<path d="M0 0 C2.88437779 1.29299694 4.87219421 2.65941363 7 5 C-0.42857143 7.42857143 -0.42857143 7.42857143 -4 6 C-2.68 4.02 -1.36 2.04 0 0 Z " fill="#F9CDBC" transform="translate(139,167)"/>
<path d="M0 0 C1.32 0.33 2.64 0.66 4 1 C1.36 4.3 -1.28 7.6 -4 11 C-4.66 10.67 -5.32 10.34 -6 10 C-4.25 5.125 -4.25 5.125 -2 4 C-0.86649466 1.98330173 -0.86649466 1.98330173 0 0 Z " fill="#942D0D" transform="translate(183,343)"/>
<path d="M0 0 C1.32 0 2.64 0 4 0 C4.33 0.99 4.66 1.98 5 3 C4.0390625 4.82421875 4.0390625 4.82421875 2.625 6.6875 C2.16351563 7.31011719 1.70203125 7.93273437 1.2265625 8.57421875 C0.82179688 9.04472656 0.41703125 9.51523438 0 10 C-0.33 10 -0.66 10 -1 10 C-1.02689216 8.52093108 -1.04634621 7.04172517 -1.0625 5.5625 C-1.07410156 4.73878906 -1.08570312 3.91507813 -1.09765625 3.06640625 C-1 1 -1 1 0 0 Z " fill="#F86A37" transform="translate(127,175)"/>
<path d="M0 0 C5.57142857 5.14285714 5.57142857 5.14285714 6 9 C5.01 9.66 4.02 10.32 3 11 C0.29417212 7.16674383 -0.32613618 4.67461851 0 0 Z " fill="#A83714" transform="translate(193,322)"/>
<path d="M0 0 C1.65 0.33 3.3 0.66 5 1 C4.67 2.65 4.34 4.3 4 6 C1.69 6.33 -0.62 6.66 -3 7 C-2.38722388 4.03824877 -1.74627478 2.61941217 0 0 Z " fill="#FAD9CD" transform="translate(148,288)"/>
<path d="M0 0 C0.66 1.32 1.32 2.64 2 4 C1.05125 4.12375 0.1025 4.2475 -0.875 4.375 C-4.08667191 4.71687177 -4.08667191 4.71687177 -6 7 C-6.33 5.35 -6.66 3.7 -7 2 C-5.824375 1.7834375 -5.824375 1.7834375 -4.625 1.5625 C-2.03578982 1.12201075 -2.03578982 1.12201075 0 0 Z " fill="#C32E02" transform="translate(154,235)"/>
<path d="M0 0 C0.33 0.66 0.66 1.32 1 2 C-0.27772308 4.68994334 -1.38379667 6.55378379 -3.8125 8.3125 C-6.60686797 9.19072993 -9.08979796 9.13228191 -12 9 C-11.01 8.34 -10.02 7.68 -9 7 C-7.61910051 5.98716127 -6.2444096 4.96582049 -4.875 3.9375 C-4.17117188 3.41027344 -3.46734375 2.88304687 -2.7421875 2.33984375 C-1.07217635 1.11532523 -1.07217635 1.11532523 0 0 Z " fill="#FACEBD" transform="translate(288,174)"/>
<path d="M0 0 C0.66 0 1.32 0 2 0 C2.0270043 1.45823212 2.04639787 2.91660675 2.0625 4.375 C2.07410156 5.18710938 2.08570312 5.99921875 2.09765625 6.8359375 C2 9 2 9 1 11 C0.01 10.67 -0.98 10.34 -2 10 C-1.85950482 8.52031676 -1.71245174 7.04125484 -1.5625 5.5625 C-1.48128906 4.73878906 -1.40007812 3.91507813 -1.31640625 3.06640625 C-1 1 -1 1 0 0 Z " fill="#FA6532" transform="translate(92,151)"/>
<path d="M0 0 C0.99 0 1.98 0 3 0 C4.32 2.31 5.64 4.62 7 7 C5.35 7.33 3.7 7.66 2 8 C0.4375 5.6875 0.4375 5.6875 -1 3 C-0.67 2.01 -0.34 1.02 0 0 Z " fill="#F8C9B6" transform="translate(216,184)"/>
<path d="M0 0 C0.66 0 1.32 0 2 0 C3.12862175 5.36095333 3.09688221 10.55306686 3 16 C0.29327469 12.60931722 -0.64948542 10.38143222 -1 6 C-0.5625 2.625 -0.5625 2.625 0 0 Z " fill="#FD622D" transform="translate(287,143)"/>
<path d="M0 0 C0.226875 0.61875 0.45375 1.2375 0.6875 1.875 C2.46133833 4.74692872 3.7645246 5.08562652 7 6 C9.66641031 6.43038534 12.31013518 6.72645443 15 7 C15 7.33 15 7.66 15 8 C8.45336558 8.54555287 3.47621253 7.8277608 -2 4 C-2.33 3.34 -2.66 2.68 -3 2 C-2.01 1.34 -1.02 0.68 0 0 Z " fill="#EF714D" transform="translate(203,240)"/>
<path d="M0 0 C2.75 -0.25 2.75 -0.25 6 0 C8.375 2 8.375 2 10 4 C3.375 4.25 3.375 4.25 0 2 C0 1.34 0 0.68 0 0 Z " fill="#F7E4DA" transform="translate(139,299)"/>
<path d="M0 0 C2.31 0.33 4.62 0.66 7 1 C4.78065836 4.32901247 3.65316671 4.75023244 0 6 C-0.99 4.68 -1.98 3.36 -3 2 C-2.01 2 -1.02 2 0 2 C0 1.34 0 0.68 0 0 Z " fill="#F86C3C" transform="translate(81,199)"/>
<path d="M0 0 C3.465 1.98 3.465 1.98 7 4 C7 4.66 7 5.32 7 6 C5.68 6.33 4.36 6.66 3 7 C2.67 6.34 2.34 5.68 2 5 C-0.02463255 4.34786708 -0.02463255 4.34786708 -2 4 C-1.34 2.68 -0.68 1.36 0 0 Z " fill="#FAD1C1" transform="translate(168,191)"/>
<path d="M0 0 C1.34201604 2.68403208 0.70405525 3.7430131 -0.1875 6.5625 C-0.42855469 7.36816406 -0.66960937 8.17382812 -0.91796875 9.00390625 C-2 11 -2 11 -4.11328125 11.77734375 C-5.04720703 11.88755859 -5.04720703 11.88755859 -6 12 C-4.68139111 7.38486888 -2.78644563 3.90102388 0 0 Z " fill="#F77547" transform="translate(90,153)"/>
<path d="M0 0 C0.99 0.33 1.98 0.66 3 1 C3.3721042 2.32303717 3.70630173 3.65737935 4 5 C4.66 5.33 5.32 5.66 6 6 C6 6.66 6 7.32 6 8 C3.69 7.67 1.38 7.34 -1 7 C-1.33 6.01 -1.66 5.02 -2 4 C-1.34 3.67 -0.68 3.34 0 3 C0 2.01 0 1.02 0 0 Z " fill="#F8CEBF" transform="translate(105,263)"/>
<path d="M0 0 C0.66 1.32 1.32 2.64 2 4 C0.02 6.97 -1.96 9.94 -4 13 C-5.05609899 9.83170302 -5.13055309 9.01480825 -4 6 C-3.0206121 4.97980427 -2.02104551 3.97850195 -1 3 C-0.67 2.01 -0.34 1.02 0 0 Z " fill="#E5521F" transform="translate(180,154)"/>
<path d="M0 0 C0.99 0 1.98 0 3 0 C2.67 4.29 2.34 8.58 2 13 C0.01169969 9.02339937 -1.40039964 6.11639809 -0.5625 1.6875 C-0.376875 1.130625 -0.19125 0.57375 0 0 Z " fill="#D77858" transform="translate(120,340)"/>
<path d="M0 0 C0.66 0.33 1.32 0.66 2 1 C-0.64 4.63 -3.28 8.26 -6 12 C-6.33 10.68 -6.66 9.36 -7 8 C-6.01 7.67 -5.02 7.34 -4 7 C-3.64587656 5.67203709 -3.31478446 4.33783393 -3 3 C-1.4375 1.25 -1.4375 1.25 0 0 Z " fill="#F7D2BF" transform="translate(115,251)"/>
<path d="M0 0 C-0.55774272 3.23490776 -1.37211508 4.97855006 -4 7 C-4.99 7 -5.98 7 -7 7 C-4.60526316 0 -4.60526316 0 0 0 Z " fill="#F1DDCF" transform="translate(146,239)"/>
<path d="M0 0 C0.33 1.32 0.66 2.64 1 4 C-1.97 6.475 -1.97 6.475 -5 9 C-5.33 7.68 -5.66 6.36 -6 5 C-4.02 3.35 -2.04 1.7 0 0 Z " fill="#DC5627" transform="translate(130,95)"/>
<path d="M0 0 C0.99 0.33 1.98 0.66 3 1 C2.67 2.32 2.34 3.64 2 5 C4.64 5.33 7.28 5.66 10 6 C9.67 6.66 9.34 7.32 9 8 C7.72125 8.061875 6.4425 8.12375 5.125 8.1875 C4.40570313 8.22230469 3.68640625 8.25710938 2.9453125 8.29296875 C2.30335938 8.19628906 1.66140625 8.09960938 1 8 C-1 5 -1 5 -0.625 2.3125 C-0.41875 1.549375 -0.2125 0.78625 0 0 Z " fill="#9B381C" transform="translate(151,341)"/>
<path d="M0 0 C0.33333333 1.33333333 0.66666667 2.66666667 1 4 C1.309375 5.051875 1.309375 5.051875 1.625 6.125 C2 8 2 8 1 10 C-0.32 9.01 -1.64 8.02 -3 7 C-2.38722388 4.03824877 -1.74627478 2.61941217 0 0 Z " fill="#BB421E" transform="translate(110,260)"/>
<path d="M0 0 C1 3 1 3 0.4375 5.625 C-1 8 -1 8 -4.125 8.8125 C-5.07375 8.874375 -6.0225 8.93625 -7 9 C-6.02180976 7.68677212 -5.0424189 6.37443848 -4.0625 5.0625 C-3.51722656 4.33160156 -2.97195312 3.60070312 -2.41015625 2.84765625 C-1 1 -1 1 0 0 Z " fill="#F2C7B6" transform="translate(189,341)"/>
<path d="M0 0 C0.66 0 1.32 0 2 0 C1.67 2.64 1.34 5.28 1 8 C0.01 8.33 -0.98 8.66 -2 9 C-1.125 2.25 -1.125 2.25 0 0 Z " fill="#F0D2C1" transform="translate(126,338)"/>
<path d="M0 0 C0.99 0 1.98 0 3 0 C2.42655063 2.86724686 2.1385485 3.8614515 0 6 C-0.99 6 -1.98 6 -3 6 C-2.42655063 3.13275314 -2.1385485 2.1385485 0 0 Z " fill="#F3E3D9" transform="translate(129,257)"/>
<path d="M0 0 C1.32 0 2.64 0 4 0 C4.625 1.875 4.625 1.875 5 4 C4.34 4.66 3.68 5.32 3 6 C0.875 5.625 0.875 5.625 -1 5 C-0.34 4.34 0.32 3.68 1 3 C0.34 2.34 -0.32 1.68 -1 1 C-0.67 0.67 -0.34 0.34 0 0 Z " fill="#D03103" transform="translate(134,239)"/>
<path d="M0 0 C0.66 0.66 1.32 1.32 2 2 C1.625 5.125 1.625 5.125 1 8 C0.67 8 0.34 8 0 8 C-0.33 9.65 -0.66 11.3 -1 13 C-1.33 13 -1.66 13 -2 13 C-2.05416188 11.39620659 -2.09286638 9.79188594 -2.125 8.1875 C-2.14820312 7.29417969 -2.17140625 6.40085938 -2.1953125 5.48046875 C-2 3 -2 3 0 0 Z " fill="#FA7C53" transform="translate(74,180)"/>
<path d="M0 0 C0.33 1.65 0.66 3.3 1 5 C-1 5 -3 5 -5 5 C-5 4.34 -5 3.68 -5 3 C-5.66 2.67 -6.32 2.34 -7 2 C-4 0 -4 0 0 0 Z " fill="#EC5721" transform="translate(161,175)"/>
<path d="M0 0 C2.35953094 2.35953094 2.49141413 3.77895617 3 7 C1.02 7.33 -0.96 7.66 -3 8 C-1.125 2.25 -1.125 2.25 0 0 Z " fill="#282422" transform="translate(129,34)"/>
<path d="M0 0 C0.66 0 1.32 0 2 0 C3.125 3.75 3.125 3.75 2 6 C4.64 6.33 7.28 6.66 10 7 C10 7.33 10 7.66 10 8 C7.03 7.67 4.06 7.34 1 7 C0.67 4.69 0.34 2.38 0 0 Z " fill="#D9947D" transform="translate(122,353)"/>
<path d="M0 0 C1.32 0 2.64 0 4 0 C3.43628586 3.26954202 2.50037734 4.82575883 0 7 C-1.125 2.25 -1.125 2.25 0 0 Z " fill="#F9D0BF" transform="translate(104,128)"/>
<path d="M0 0 C0.33 0.99 0.66 1.98 1 3 C-0.65 3.33 -2.3 3.66 -4 4 C-3.67 4.99 -3.34 5.98 -3 7 C-4.32 7 -5.64 7 -7 7 C-3.86206897 0 -3.86206897 0 0 0 Z " fill="#E96536" transform="translate(161,75)"/>
<path d="M0 0 C0.66 0 1.32 0 2 0 C2.33 1.65 2.66 3.3 3 5 C0.36 4.67 -2.28 4.34 -5 4 C-5.33 4.66 -5.66 5.32 -6 6 C-6.66 5.67 -7.32 5.34 -8 5 C-7.67 4.01 -7.34 3.02 -7 2 C-4.36 2.33 -1.72 2.66 1 3 C0.67 2.01 0.34 1.02 0 0 Z " fill="#B53E1D" transform="translate(186,320)"/>
<path d="M0 0 C4.95 0.99 4.95 0.99 10 2 C5.5 5.375 5.5 5.375 1 5 C0.67 3.35 0.34 1.7 0 0 Z " fill="#B23919" transform="translate(146,315)"/>
<path d="M0 0 C0.6875 1.6875 0.6875 1.6875 1 4 C-0.4375 6.75 -0.4375 6.75 -2 9 C-2.99 8.67 -3.98 8.34 -5 8 C-3.62845496 5.04590299 -2.01136276 2.55991624 0 0 Z " fill="#F4C6B5" transform="translate(165,276)"/>
<path d="M0 0 C-0.1875 1.875 -0.1875 1.875 -1 4 C-3.5625 5.25 -3.5625 5.25 -6 6 C-5.6875 4.125 -5.6875 4.125 -5 2 C-2 0 -2 0 0 0 Z " fill="#F4E5DA" transform="translate(132,249)"/>
<path d="M0 0 C0.66 0.33 1.32 0.66 2 1 C1.67 2.98 1.34 4.96 1 7 C0.01 7 -0.98 7 -2 7 C-2.33 6.01 -2.66 5.02 -3 4 C-2.34 4 -1.68 4 -1 4 C-0.67 2.68 -0.34 1.36 0 0 Z " fill="#F66B3E" transform="translate(235,199)"/>
<path d="M0 0 C-0.33 0.99 -0.66 1.98 -1 3 C-3.5625 4.1875 -3.5625 4.1875 -6 5 C-6 3.35 -6 1.7 -6 0 C-3.50907189 -1.24546405 -2.58919267 -0.7767578 0 0 Z " fill="#FA6A38" transform="translate(285,176)"/>
<path d="M0 0 C2 3 2 3 1.6875 5.5 C1.17901328 7.34904262 0.60642538 9.18072387 0 11 C-0.66 11 -1.32 11 -2 11 C-1.85892253 9.54119891 -1.71197585 8.08296449 -1.5625 6.625 C-1.48128906 5.81289062 -1.40007812 5.00078125 -1.31640625 4.1640625 C-1 2 -1 2 0 0 Z " fill="#ED6536" transform="translate(114,116)"/>
<path d="M0 0 C0.33 0 0.66 0 1 0 C1.33 3.63 1.66 7.26 2 11 C1.01 11.33 0.02 11.66 -1 12 C-1.14285714 3.42857143 -1.14285714 3.42857143 0 0 Z " fill="#E4C6BB" transform="translate(122,91)"/>
<path d="M0 0 C0.66 0.33 1.32 0.66 2 1 C1.67 4.96 1.34 8.92 1 13 C0.01 12.67 -0.98 12.34 -2 12 C-1.34 12 -0.68 12 0 12 C-0.08378906 11.30132812 -0.16757813 10.60265625 -0.25390625 9.8828125 C-0.35574219 8.97273438 -0.45757812 8.06265625 -0.5625 7.125 C-0.66691406 6.22007813 -0.77132812 5.31515625 -0.87890625 4.3828125 C-1 2 -1 2 0 0 Z " fill="#F8C4AD" transform="translate(255,87)"/>
<path d="M0 0 C0.33 0 0.66 0 1 0 C0.95875 1.093125 0.9175 2.18625 0.875 3.3125 C0.67925334 7.08892229 0.67925334 7.08892229 3 10 C1.02 10.99 1.02 10.99 -1 12 C-1.02712066 10.56260487 -1.04645067 9.12506137 -1.0625 7.6875 C-1.07410156 6.88699219 -1.08570313 6.08648437 -1.09765625 5.26171875 C-1 3 -1 3 0 0 Z " fill="#E4E0DC" transform="translate(136,79)"/>
<path d="M0 0 C0.66 0 1.32 0 2 0 C1.4140625 6.15234375 1.4140625 6.15234375 1 8 C0.01 8.495 0.01 8.495 -1 9 C-1.09765625 2.84765625 -1.09765625 2.84765625 -1 1 C-0.67 0.67 -0.34 0.34 0 0 Z " fill="#F6E4D6" transform="translate(131,304)"/>
<path d="M0 0 C-1.5 1.5625 -1.5 1.5625 -4 3 C-6.77437543 2.96823234 -9.25286467 2.50364148 -12 2 C-12 1.67 -12 1.34 -12 1 C-10.56496445 0.63597631 -9.12683494 0.28413409 -7.6875 -0.0625 C-6.88699219 -0.25972656 -6.08648437 -0.45695312 -5.26171875 -0.66015625 C-3 -1 -3 -1 0 0 Z " fill="#B84A29" transform="translate(151,297)"/>
<path d="M0 0 C4.75 0.875 4.75 0.875 7 2 C7 2.66 7 3.32 7 4 C5.02 4.33 3.04 4.66 1 5 C0.67 3.35 0.34 1.7 0 0 Z " fill="#C77E65" transform="translate(130,279)"/>
<path d="M0 0 C0.66 0.99 1.32 1.98 2 3 C0.02 5.97 0.02 5.97 -2 9 C-2.99 8.67 -3.98 8.34 -5 8 C-3.35 5.36 -1.7 2.72 0 0 Z " fill="#FA7645" transform="translate(83,165)"/>
<path d="M0 0 C-2.41710763 2.9259724 -4.3065363 3.43177482 -8 4 C-8.99 4.495 -8.99 4.495 -10 5 C-10.66 4.34 -11.32 3.68 -12 3 C-10.3789897 2.30314502 -8.75303934 1.61777139 -7.125 0.9375 C-6.22007813 0.55464844 -5.31515625 0.17179687 -4.3828125 -0.22265625 C-2 -1 -2 -1 0 0 Z " fill="#FBDFD8" transform="translate(132,27)"/>
<path d="M0 0 C4 1 4 1 7 3 C6.34 4.32 5.68 5.64 5 7 C3.35 4.69 1.7 2.38 0 0 Z " fill="#F5CBB9" transform="translate(179,304)"/>
<path d="M0 0 C0.99 0 1.98 0 3 0 C2.67 1.32 2.34 2.64 2 4 C0.35 4.33 -1.3 4.66 -3 5 C-1.125 1.125 -1.125 1.125 0 0 Z " fill="#F2E3D8" transform="translate(116,258)"/>
<path d="M0 0 C1.2065625 0.0309375 1.2065625 0.0309375 2.4375 0.0625 C2.1075 0.7225 1.7775 1.3825 1.4375 2.0625 C0.4475 2.3925 -0.5425 2.7225 -1.5625 3.0625 C-1.5625 4.0525 -1.5625 5.0425 -1.5625 6.0625 C-2.2225 6.0625 -2.8825 6.0625 -3.5625 6.0625 C-3.605221 4.39638095 -3.60313832 2.72867115 -3.5625 1.0625 C-2.5625 0.0625 -2.5625 0.0625 0 0 Z " fill="#F0CCC0" transform="translate(160.5625,250.9375)"/>
<path d="M0 0 C1.125 3.75 1.125 3.75 0 6 C-0.66 6 -1.32 6 -2 6 C-2.33 6.66 -2.66 7.32 -3 8 C-3.66 7.34 -4.32 6.68 -5 6 C-3.35 4.02 -1.7 2.04 0 0 Z " fill="#CE4720" transform="translate(121,246)"/>
<path d="M0 0 C0 0.99 0 1.98 0 3 C-0.66 2.67 -1.32 2.34 -2 2 C-2.33 2.66 -2.66 3.32 -3 4 C-3.66 4 -4.32 4 -5 4 C-5 3.34 -5 2.68 -5 2 C-5.99 1.67 -6.98 1.34 -8 1 C-4.93251126 -0.86240388 -3.40254489 -1.2151946 0 0 Z " fill="#EE5621" transform="translate(157,83)"/>
<path d="M0 0 C0.66 0.33 1.32 0.66 2 1 C1.67 1.66 1.34 2.32 1 3 C1.66 3.33 2.32 3.66 3 4 C-2.625 5.125 -2.625 5.125 -6 4 C-4.02 2.68 -2.04 1.36 0 0 Z " fill="#E95F30" transform="translate(170,66)"/>
<path d="M0 0 C1.32 1.32 2.64 2.64 4 4 C2.68 5.32 1.36 6.64 0 8 C-0.66 7.34 -1.32 6.68 -2 6 C-1.67 5.38125 -1.34 4.7625 -1 4.125 C0.14193235 2.08981656 0.14193235 2.08981656 0 0 Z " fill="#B33918" transform="translate(185,312)"/>
<path d="M0 0 C0.33 1.32 0.66 2.64 1 4 C-0.32 4 -1.64 4 -3 4 C-2.67 4.66 -2.34 5.32 -2 6 C-3.65 5.67 -5.3 5.34 -7 5 C-6.34 4.67 -5.68 4.34 -5 4 C-5 3.34 -5 2.68 -5 2 C-4.01 1.67 -3.02 1.34 -2 1 C-1.34 1.33 -0.68 1.66 0 2 C0 1.34 0 0.68 0 0 Z " fill="#9A3319" transform="translate(134,276)"/>
<path d="M0 0 C1.32 0.66 2.64 1.32 4 2 C4 3.32 4 4.64 4 6 C3.34 6 2.68 6 2 6 C1.34 5.34 0.68 4.68 0 4 C-0.66 3.67 -1.32 3.34 -2 3 C-1.34 2.01 -0.68 1.02 0 0 Z " fill="#F4E9DD" transform="translate(140,261)"/>
<path d="M0 0 C0.33 0 0.66 0 1 0 C1 2.97 1 5.94 1 9 C0.01 8.34 -0.98 7.68 -2 7 C-1.125 2.25 -1.125 2.25 0 0 Z " fill="#F86F3D" transform="translate(77,175)"/>
<path d="M0 0 C0 0.66 0 1.32 0 2 C0.66 2.33 1.32 2.66 2 3 C-0.97 3 -3.94 3 -7 3 C-7.33 2.34 -7.66 1.68 -8 1 C-5.29120665 -0.35439668 -2.99066732 -0.06501451 0 0 Z " fill="#F15621" transform="translate(254,100)"/>
<path d="M0 0 C1.98 0.495 1.98 0.495 4 1 C3.67 2.98 3.34 4.96 3 7 C2.67 6.01 2.34 5.02 2 4 C1.01 3.67 0.02 3.34 -1 3 C-0.67 2.01 -0.34 1.02 0 0 Z " fill="#B03712" transform="translate(134,260)"/>
<path d="M0 0 C0.99 0 1.98 0 3 0 C2.25 1.9375 2.25 1.9375 1 4 C-1.125 4.75 -1.125 4.75 -3 5 C-1.125 1.125 -1.125 1.125 0 0 Z " fill="#F8EEE6" transform="translate(128,243)"/>
<path d="M0 0 C1.65 0 3.3 0 5 0 C5 0.99 5 1.98 5 3 C4.34 3 3.68 3 3 3 C2.67 3.99 2.34 4.98 2 6 C1.34 5.67 0.68 5.34 0 5 C0.33 4.01 0.66 3.02 1 2 C0.67 1.34 0.34 0.68 0 0 Z " fill="#FA662E" transform="translate(111,191)"/>
<path d="M0 0 C2.50037734 2.17424117 3.43628586 3.73045798 4 7 C3.01 7.33 2.02 7.66 1 8 C0.67 5.36 0.34 2.72 0 0 Z " fill="#EB6234" transform="translate(292,85)"/>
<path d="M0 0 C1.65 0 3.3 0 5 0 C4.67 1.32 4.34 2.64 4 4 C2.68 3.67 1.36 3.34 0 3 C0 2.01 0 1.02 0 0 Z " fill="#F4E8DC" transform="translate(145,268)"/>
<path d="M0 0 C0 2 0 4 0 6 C-0.99 6.33 -1.98 6.66 -3 7 C-3.33 6.01 -3.66 5.02 -4 4 C-2.68 2.68 -1.36 1.36 0 0 Z " fill="#F7D2C2" transform="translate(177,255)"/>
<path d="M0 0 C0.33 0.99 0.66 1.98 1 3 C1.66 3 2.32 3 3 3 C2.67 3.99 2.34 4.98 2 6 C2 5.34 2 4.68 2 4 C0.68 4.33 -0.64 4.66 -2 5 C-2 4.34 -2 3.68 -2 3 C-2.66 2.67 -3.32 2.34 -4 2 C-2.68 1.34 -1.36 0.68 0 0 Z " fill="#CE5029" transform="translate(130,253)"/>
<path d="M0 0 C0.99 0.33 1.98 0.66 3 1 C1.68 3.64 0.36 6.28 -1 9 C-2.07349791 4.70600835 -1.79682816 3.80504787 0 0 Z " fill="#FBD1BE" transform="translate(81,163)"/>
<path d="M0 0 C0.66 0.66 1.32 1.32 2 2 C-1.5 6.875 -1.5 6.875 -6 8 C-4.02 5.36 -2.04 2.72 0 0 Z " fill="#E24D1A" transform="translate(159,151)"/>
<path d="M0 0 C2.375 0.25 2.375 0.25 5 1 C6.3125 3.0625 6.3125 3.0625 7 5 C4.69 4.01 2.38 3.02 0 2 C0 1.34 0 0.68 0 0 Z " fill="#E7D7CC" transform="translate(202,67)"/>
<path d="" fill="#E9FFFA" transform="translate(0,0)"/>
<path d="" fill="#E7FBF0" transform="translate(0,0)"/>
<path d="" fill="#EBF5F7" transform="translate(0,0)"/>
<path d="" fill="#EBFFF6" transform="translate(0,0)"/>
<path d="" fill="#F4EDE7" transform="translate(0,0)"/>
</svg>
